<svg width="37" height="37" viewBox="0 0 37 37" fill="none" xmlns="http://www.w3.org/2000/svg">
<rect width="37" height="37" rx="5" fill="white"/>
<path d="M15.0967 26.766C22.8208 26.766 27.0449 20.4063 27.0449 14.8914C27.0449 14.7108 27.0412 14.531 27.033 14.352C27.8549 13.761 28.5643 13.0291 29.1278 12.1909C28.3753 12.5233 27.5656 12.7471 26.7162 12.848C27.5832 12.3313 28.2488 11.5139 28.5628 10.5396C27.7385 11.0256 26.8367 11.3682 25.8963 11.5527C25.1299 10.7414 24.039 10.2341 22.8309 10.2341C20.5119 10.2341 18.6313 12.1031 18.6313 14.4069C18.6313 14.7345 18.6682 15.053 18.7403 15.3586C15.2501 15.184 12.1553 13.5233 10.084 10.9981C9.71098 11.635 9.51477 12.3589 9.51542 13.0957C9.51542 14.5437 10.2568 15.8219 11.3842 16.5697C10.7173 16.5495 10.0651 16.3705 9.4823 16.0477C9.48168 16.0652 9.48168 16.0823 9.48168 16.101C9.48168 18.1222 10.9292 19.8097 12.8507 20.1921C12.4898 20.2898 12.1174 20.3392 11.7434 20.339C11.4732 20.339 11.21 20.3125 10.9541 20.2637C11.4888 21.922 13.039 23.1287 14.877 23.1624C13.4397 24.282 11.6292 24.9488 9.66136 24.9488C9.32661 24.9491 8.99213 24.9298 8.65967 24.891C10.5182 26.0749 12.725 26.7657 15.0969 26.7657" fill="#10C793"/>
</svg>
