<svg width="37" height="37" viewBox="0 0 37 37" fill="none" xmlns="http://www.w3.org/2000/svg">
<path d="M32.6657 0H4.33449C1.94525 0 0 1.70197 0 3.81102V28.823C0 30.9321 1.9451 32.634 4.33435 32.634H28.3103L27.1897 29.2115L29.896 31.413L32.4542 33.485L37 37V3.81102C37 1.70197 35.0549 0 32.6657 0ZM24.5046 24.1611C24.5046 24.1611 23.7434 23.3656 23.1091 22.6625C25.8789 21.978 26.936 20.461 26.936 20.461C26.0691 20.9606 25.2446 21.3121 24.5046 21.5524C23.4474 21.941 22.4326 22.1999 21.4389 22.348C19.4091 22.681 17.5486 22.5886 15.9629 22.3295C14.7577 22.1259 13.7217 21.83 12.8549 21.5341C12.3686 21.3675 11.84 21.164 11.3113 20.905C11.248 20.868 11.1846 20.8495 11.1211 20.8125C11.0789 20.794 11.0577 20.7755 11.0366 20.7571C10.656 20.5721 10.4446 20.4426 10.4446 20.4426C10.4446 20.4426 11.4594 21.9226 14.1446 22.6255C13.5103 23.3286 12.728 24.161 12.728 24.161C8.0553 24.0315 6.27945 21.3491 6.27945 21.3491C6.27945 15.3921 9.324 10.5635 9.324 10.5635C12.3686 8.56548 15.2651 8.62099 15.2651 8.62099L15.4766 8.84307C11.6709 9.80483 9.916 11.2665 9.916 11.2665C9.916 11.2665 10.3811 11.0446 11.1633 10.7301C13.4257 9.86048 15.2229 9.62007 15.9629 9.56455C16.0897 9.54596 16.1954 9.5275 16.3223 9.5275C17.7392 9.36599 19.173 9.3536 20.5932 9.49057C22.6017 9.69405 24.7583 10.2121 26.9571 11.2665C26.9571 11.2665 25.2869 9.87907 21.6926 8.91705L21.9886 8.62112C21.9886 8.62112 24.8851 8.56548 27.9297 10.5636C27.9297 10.5636 30.9743 15.3921 30.9743 21.3491C30.9743 21.3491 29.1771 24.0315 24.5046 24.161V24.1611ZM14.6731 15.5216C13.468 15.5216 12.5167 16.4465 12.5167 17.575C12.5167 18.7035 13.4891 19.6285 14.6731 19.6285C15.8783 19.6285 16.8297 18.7035 16.8297 17.575C16.8509 16.4465 15.8783 15.5216 14.6732 15.5216H14.6731ZM22.3903 15.5216C21.1851 15.5216 20.2337 16.4465 20.2337 17.575C20.2337 18.7035 21.2063 19.6285 22.3903 19.6285C23.5954 19.6285 24.5468 18.7035 24.5468 17.575C24.5468 16.4465 23.5954 15.5216 22.3903 15.5216Z" fill="white"/>
</svg>
