<svg width="40" height="57" viewBox="0 0 40 57" fill="none" xmlns="http://www.w3.org/2000/svg">
<path fill-rule="evenodd" clip-rule="evenodd" d="M17.6637 0.155545C11.5049 1.24147 6.76305 6.06835 5.83436 12.1971C5.75797 12.7011 5.71307 15.3254 5.71307 19.2816V25.5656L5.07086 25.6452C2.78315 25.9288 0.757134 27.6732 0.172224 29.8627C-0.062879 30.743 -0.0547255 52.0296 0.181048 52.821C0.74954 54.7292 2.3889 56.3202 4.31697 56.8348C5.14178 57.0551 34.8765 57.0551 35.7013 56.8348C37.6198 56.3228 39.2662 54.7379 39.8236 52.8668C39.9809 52.339 40.0012 51.0139 39.9999 41.3521C39.9988 32.4779 39.97 30.3271 39.846 29.8627C39.37 28.0808 37.922 26.5641 36.0121 25.8473C35.5117 25.6595 34.7183 25.6449 23.434 25.6161L11.3901 25.5854L11.4362 19.3259C11.4803 13.3263 11.4924 13.0294 11.7248 12.1758C12.5652 9.09021 14.9074 6.75905 17.9329 5.99676C19.1323 5.69461 20.886 5.69461 22.0854 5.99676C25.1172 6.76061 27.5035 9.14165 28.2783 12.1758C28.4454 12.8303 28.524 13.6051 28.5749 15.0982L28.6442 17.13H31.4747H34.3052V15.0639C34.3052 12.8129 34.2051 11.9086 33.7922 10.4254C32.289 5.02751 27.6489 0.948335 22.0539 0.105891C20.9893 -0.0544258 18.7079 -0.0285966 17.6637 0.155545ZM21.3664 37.3008C22.0282 37.5259 22.886 38.144 23.3521 38.7317C25.0131 40.8265 24.2513 43.9541 21.7961 45.1192C21.1425 45.4295 20.9644 45.4638 20.0091 45.4638C19.0539 45.4638 18.8757 45.4295 18.2221 45.1192C17.2987 44.681 16.605 43.9891 16.1678 43.0702C15.8616 42.4263 15.824 42.2361 15.8263 41.3445C15.8298 40.0032 16.1151 39.2762 16.9769 38.4127C17.6478 37.7405 18.3536 37.3348 19.1374 37.1708C19.7 37.0531 20.8323 37.1191 21.3664 37.3008Z" fill="url(#paint0_linear_186:1887)"/>
<defs>
<linearGradient id="paint0_linear_186:1887" x1="20" y1="0" x2="20" y2="57" gradientUnits="userSpaceOnUse">
<stop stop-color="#8FF993"/>
<stop offset="1" stop-color="#62F9C8"/>
</linearGradient>
</defs>
</svg>
