<svg width="70" height="70" viewBox="0 0 70 70" fill="none" xmlns="http://www.w3.org/2000/svg">
<path fill-rule="evenodd" clip-rule="evenodd" d="M32.8767 0.159726C31.2445 0.541608 29.9092 1.17009 28.6986 2.12637C28.3596 2.39419 27.0342 3.64568 25.7534 4.90744L23.4247 7.20174L19.5205 7.25856C15.2175 7.32128 14.8267 7.38084 12.9988 8.25332C10.4889 9.45127 8.53493 11.7076 7.63288 14.45C7.3011 15.4585 7.28356 15.6758 7.22877 19.4749L7.17137 23.4457L4.87712 25.7735C2.26521 28.4234 1.79589 28.9793 1.12068 30.2235C0.256027 31.8169 0 32.9117 0 35.0159C0 36.5728 0.0506852 37.0255 0.321096 37.8865C1.02795 40.1363 1.61397 40.9566 4.87342 44.2582L7.17137 46.5859L7.22575 50.5568C7.27616 54.2321 7.30342 54.5989 7.59192 55.486C8.7026 58.9001 11.0966 61.2937 14.5205 62.4134C15.4116 62.7048 15.7607 62.7307 19.4521 62.7783L23.4247 62.8298L25.7534 65.1241C28.4038 67.7353 28.9601 68.2045 30.2055 68.8798C31.7996 69.7441 32.8949 70 35 70C37.1051 70 38.2004 69.7441 39.7945 68.8798C41.0393 68.2049 41.5955 67.7358 44.2466 65.1251L46.5753 62.8319L50.5479 62.7745C54.3488 62.7197 54.5662 62.7022 55.5752 62.3706C58.8518 61.2937 61.344 58.7833 62.41 55.486C62.696 54.6012 62.724 54.2221 62.7742 50.5568L62.8286 46.5859L65.1229 44.2582C67.7348 41.6083 68.2041 41.0524 68.8793 39.8082C69.744 38.2148 70 37.12 70 35.0159C70 32.9117 69.744 31.8169 68.8793 30.2235C68.2041 28.9793 67.7348 28.4234 65.1229 25.7735L62.8286 23.4457L62.7742 19.4749C62.7238 15.7996 62.6966 15.4328 62.4081 14.5457C61.3007 11.1417 58.8988 8.74159 55.4795 7.62237C54.5892 7.331 54.2362 7.30471 50.5479 7.25418L46.5753 7.19982L44.2466 4.90662C42.9658 3.64527 41.6404 2.3931 41.3014 2.12404C40.4338 1.43545 39.0696 0.722758 37.9452 0.371C36.7116 -0.0149895 34.0905 -0.124118 32.8767 0.159726ZM31.7123 29.5182C33.4412 30.076 34.1974 30.8968 34.4729 32.5142C34.6062 33.2968 34.5959 33.5605 34.4071 34.2062C34.1484 35.091 33.3403 36.0945 32.6063 36.4427C32.3407 36.5687 32.1233 36.7173 32.1233 36.7727C32.1233 36.8283 32.3074 36.9825 32.5323 37.1153C33.189 37.5031 33.6482 38.4799 34.393 41.0734L35.0912 43.5052H33.4815H31.8716L31.596 42.6494C31.4445 42.1788 31.1468 41.1547 30.9347 40.3738C30.6507 39.3291 30.4356 38.8232 30.1204 38.4587C29.7033 37.9764 29.6626 37.9621 28.5789 37.9128L27.4658 37.8622V40.6837V43.5052H25.9589H24.4521V36.4645V29.4237L25.3082 29.3444C25.7792 29.3009 26.3493 29.2398 26.5753 29.209C26.8014 29.1781 27.8493 29.1704 28.9041 29.1919C30.3981 29.2223 31.0188 29.2945 31.7123 29.5182ZM21.8493 30.5658V31.8666H19.1096H16.3699V33.5097V35.1528H18.9726H21.5753V36.4536V37.7543H18.9726H16.3699V40.6297V43.5052H14.7945H13.2192V36.3851V29.265H17.5342H21.8493V30.5658ZM45.6849 30.5658V31.8666H42.9452H40.2055V33.3728V34.8789H42.8082H45.411V36.1797V37.4805H42.8082H40.2055V39.192V40.9036H43.1507H46.0959V42.2044V43.5052H41.5753H37.0548V36.3851V29.265H41.3699H45.6849V30.5658ZM57.0548 30.5658V31.8666H54.2466H51.4384V33.3728V34.8789H54.1096H56.7808V36.1797V37.4805H54.1096H51.4384V39.192V40.9036H54.3836H57.3288V42.2044V43.5052H52.8082H48.2877V36.3851V29.265H52.6712H57.0548V30.5658ZM27.633 31.5612C27.5015 31.652 27.4673 32.1593 27.496 33.5887L27.5342 35.4951L28.7671 35.4937C29.8064 35.4926 30.0784 35.444 30.4992 35.1836C31.7586 34.4039 31.736 32.4476 30.4599 31.788C29.9645 31.5319 27.9134 31.3674 27.633 31.5612Z" fill="url(#paint0_linear_186:1868)"/>
<defs>
<linearGradient id="paint0_linear_186:1868" x1="35" y1="0" x2="35" y2="70" gradientUnits="userSpaceOnUse">
<stop stop-color="#8FF993"/>
<stop offset="1" stop-color="#62F9C8"/>
</linearGradient>
</defs>
</svg>
