<svg width="24" height="21" viewBox="0 0 24 21" fill="none" xmlns="http://www.w3.org/2000/svg">
<path fill-rule="evenodd" clip-rule="evenodd" d="M6.7168 19.2727L9.79299 20.0889V19.0216L10.0441 18.7705H11.8019V20.0261V20.905H9.91854L7.59569 19.9005L6.7168 19.2727Z" fill="#CDBDB2"/>
<path fill-rule="evenodd" clip-rule="evenodd" d="M16.7622 19.2727L13.7489 20.0889V19.0216L13.4977 18.7705H11.7399V20.0261V20.905H13.6233L15.946 19.9005L16.7622 19.2727Z" fill="#CDBDB2"/>
<path fill-rule="evenodd" clip-rule="evenodd" d="M10.0441 16.9499L9.79297 19.0216L10.1068 18.7704H13.3713L13.7479 19.0216L13.4968 16.9499L12.9946 16.636L10.4835 16.6988L10.0441 16.9499Z" fill="#393939"/>
<path fill-rule="evenodd" clip-rule="evenodd" d="M8.34961 2.95093L9.85629 6.46651L10.5469 16.6994H12.9952L13.7485 6.46651L15.1297 2.95093H8.34961Z" fill="#F89C35"/>
<path fill-rule="evenodd" clip-rule="evenodd" d="M1.75779 10.6719L0 15.7569L4.39448 15.5058H7.21944V13.3086L7.09389 8.78857L6.4661 9.2908L1.75779 10.6719Z" fill="#F89D35"/>
<path fill-rule="evenodd" clip-rule="evenodd" d="M5.08398 11.2375L10.2318 11.3631L9.66685 13.9998L7.21845 13.372L5.08398 11.2375Z" fill="#D87C30"/>
<path fill-rule="evenodd" clip-rule="evenodd" d="M5.08398 11.3005L7.21845 13.3094V15.3183L5.08398 11.3005Z" fill="#EA8D3A"/>
<path fill-rule="evenodd" clip-rule="evenodd" d="M7.22021 13.3721L9.73134 13.9999L10.5475 16.6994L9.98246 17.0132L7.22021 15.381V13.3721Z" fill="#F89D35"/>
<path fill-rule="evenodd" clip-rule="evenodd" d="M7.21902 15.3806L6.7168 19.2729L10.0441 16.9501L7.21902 15.3806Z" fill="#EB8F35"/>
<path fill-rule="evenodd" clip-rule="evenodd" d="M10.2323 11.363L10.5462 16.6992L9.60449 13.9684L10.2323 11.363Z" fill="#EA8E3A"/>
<path fill-rule="evenodd" clip-rule="evenodd" d="M4.33105 15.4434L7.21885 15.3806L6.71663 19.2729L4.33105 15.4434Z" fill="#D87C30"/>
<path fill-rule="evenodd" clip-rule="evenodd" d="M1.38112 20.9681L6.71722 19.273L4.33164 15.4436L0 15.7574L1.38112 20.9681Z" fill="#EB8F35"/>
<path fill-rule="evenodd" clip-rule="evenodd" d="M9.85513 6.46655L7.15572 8.72657L5.08398 11.2377L10.2318 11.4261L9.85513 6.46655Z" fill="#E8821E"/>
<path fill-rule="evenodd" clip-rule="evenodd" d="M6.7168 19.2734L10.0441 16.9507L9.79299 18.9596V20.0896L7.53297 19.6501L6.7168 19.2734Z" fill="#DFCEC3"/>
<path fill-rule="evenodd" clip-rule="evenodd" d="M16.7622 19.2734L13.4977 16.9507L13.7489 18.9596V20.0896L16.0089 19.6501L16.7622 19.2734Z" fill="#DFCEC3"/>
<path fill-rule="evenodd" clip-rule="evenodd" d="M8.85235 12.4932L9.54297 13.9371L7.09456 13.3093L8.85235 12.4932Z" fill="#393939"/>
<path fill-rule="evenodd" clip-rule="evenodd" d="M1.31836 0L9.8562 6.4661L8.41236 2.95052L1.31836 0Z" fill="#E88F35"/>
<path fill-rule="evenodd" clip-rule="evenodd" d="M1.31897 0L0.188965 3.4528L0.816747 7.2195L0.3773 7.47061L1.00508 8.03562L0.502856 8.47507L1.19342 9.10285L0.753969 9.47952L1.75842 10.7351L6.46679 9.29118C8.76866 7.44969 9.89867 6.50801 9.85682 6.46616C9.81496 6.42431 6.96902 4.26892 1.31897 0Z" fill="#8E5A30"/>
<path fill-rule="evenodd" clip-rule="evenodd" d="M21.7212 10.6727L23.479 15.7576L19.0845 15.5065H16.2596V13.3093L16.3851 8.78931L17.0129 9.29153L21.7212 10.6727Z" fill="#F89D35"/>
<path fill-rule="evenodd" clip-rule="evenodd" d="M18.394 11.2375L13.2462 11.3631L13.8112 13.9998L16.2596 13.372L18.394 11.2375Z" fill="#D87C30"/>
<path fill-rule="evenodd" clip-rule="evenodd" d="M18.394 11.3005L16.2596 13.3094V15.3183L18.394 11.3005Z" fill="#EA8D3A"/>
<path fill-rule="evenodd" clip-rule="evenodd" d="M16.2588 13.3723L13.7477 14.0001L12.9315 16.6996L13.4965 17.0135L16.2588 15.3812V13.3723Z" fill="#F89D35"/>
<path fill-rule="evenodd" clip-rule="evenodd" d="M16.26 15.3806L16.7622 19.2729L13.4977 17.0128L16.26 15.3806Z" fill="#EB8F35"/>
<path fill-rule="evenodd" clip-rule="evenodd" d="M13.2467 11.363L12.9328 16.6992L13.8745 13.9684L13.2467 11.363Z" fill="#EA8E3A"/>
<path fill-rule="evenodd" clip-rule="evenodd" d="M19.1479 15.4434L16.2601 15.3806L16.7624 19.2729L19.1479 15.4434Z" fill="#D87C30"/>
<path fill-rule="evenodd" clip-rule="evenodd" d="M22.0979 20.9676L16.7618 19.2725L19.1474 15.4431L23.479 15.757L22.0979 20.9676Z" fill="#EB8F35"/>
<path fill-rule="evenodd" clip-rule="evenodd" d="M13.6229 6.46655L16.3223 8.72657L18.394 11.2377L13.2462 11.4261L13.6229 6.46655Z" fill="#E8821E"/>
<path fill-rule="evenodd" clip-rule="evenodd" d="M14.6267 12.4929L13.936 13.9369L16.3844 13.3091L14.6267 12.4929Z" fill="#393939"/>
<path fill-rule="evenodd" clip-rule="evenodd" d="M22.1606 0L13.6228 6.4661L15.0666 2.95052L22.1606 0Z" fill="#E88F35"/>
<path fill-rule="evenodd" clip-rule="evenodd" d="M22.1595 0L23.2896 3.4528L22.6618 7.2195L23.1012 7.47061L22.4734 8.03562L22.9757 8.47507L22.2851 9.10285L22.7245 9.47952L21.7201 10.7351L17.0117 9.29118C14.7099 7.44969 13.5798 6.50801 13.6217 6.46616C13.6636 6.42431 16.5095 4.26892 22.1595 0Z" fill="#8E5A30"/>
</svg>
