<svg width="27" height="27" viewBox="0 0 27 27" fill="none" xmlns="http://www.w3.org/2000/svg">
<g clip-path="url(#clip0_186:1689)">
<path d="M12.0162 26.4077C10.8257 26.4077 9.43519 26.4012 8.06295 26.3227C6.05521 26.3679 4.11068 25.6194 2.65144 24.2396C1.27147 22.781 0.522882 20.8367 0.568357 18.8292C0.483398 17.2774 0.483398 15.7083 0.483398 14.1909C0.483398 13.9615 0.483398 13.7321 0.483398 13.5026C0.483398 13.2732 0.483398 13.0438 0.483398 12.8144C0.483398 11.297 0.483398 9.72793 0.568357 8.17717C0.523182 6.16943 1.2717 4.2249 2.65144 2.76566C4.11068 1.38592 6.05521 0.637401 8.06295 0.682576C9.43949 0.604071 10.8257 0.597618 12.0162 0.597618H14.7617C15.9522 0.597618 17.3427 0.604071 18.7161 0.682576C20.7235 0.637102 22.6678 1.38569 24.1265 2.76566C25.5062 4.2249 26.2547 6.16943 26.2096 8.17717C26.2935 9.72793 26.2935 11.297 26.2935 12.8155C26.2935 13.0449 26.2935 13.2743 26.2935 13.5037C26.2935 13.7331 26.2935 13.9622 26.2935 14.1909C26.2935 15.7083 26.2935 17.2774 26.2085 18.8303C26.254 20.8377 25.5054 22.7821 24.1254 24.2407C22.6668 25.6207 20.7224 26.3693 18.715 26.3238C17.3374 26.4023 15.9511 26.4087 14.7607 26.4087L12.0162 26.4077Z" fill="white"/>
<path d="M19.4173 7.89823C19.6716 8.06816 19.9706 8.15886 20.2764 8.15886L20.2775 8.15993C20.6876 8.15936 21.0806 7.99607 21.3704 7.70591C21.6601 7.41576 21.8229 7.02246 21.8229 6.6124C21.8229 6.30654 21.7322 6.00755 21.5623 5.75324C21.3923 5.49893 21.1508 5.30071 20.8682 5.18367C20.5857 5.06662 20.2747 5.03599 19.9747 5.09566C19.6748 5.15533 19.3992 5.30262 19.1829 5.51889C18.9667 5.73517 18.8194 6.01072 18.7597 6.3107C18.7 6.61069 18.7307 6.92163 18.8477 7.2042C18.9647 7.48678 19.163 7.7283 19.4173 7.89823Z" fill="#323238"/>
<path fill-rule="evenodd" clip-rule="evenodd" d="M13.3887 20.1226C12.0794 20.1224 10.7996 19.7339 9.711 19.0063C8.62244 18.2787 7.77407 17.2447 7.27316 16.035C6.77226 14.8253 6.64131 13.4942 6.89687 12.2101C7.15244 10.9259 7.78304 9.74642 8.70895 8.82066C9.63486 7.89491 10.8145 7.26449 12.0987 7.00913C13.3828 6.75378 14.7139 6.88494 15.9235 7.38605C17.1332 7.88715 18.1671 8.73569 18.8945 9.82437C19.6218 10.913 20.0101 12.193 20.0101 13.5023C20.0084 15.2579 19.3102 16.941 18.0689 18.1824C16.8275 19.4238 15.1443 20.1209 13.3887 20.1226ZM13.3887 9.20117C12.5379 9.20117 11.7062 9.45346 10.9988 9.92613C10.2914 10.3988 9.74002 11.0706 9.41444 11.8567C9.08885 12.6427 9.00366 13.5076 9.16965 14.3421C9.33563 15.1765 9.74532 15.943 10.3469 16.5446C10.9485 17.1462 11.715 17.5559 12.5495 17.7219C13.3839 17.8878 14.2488 17.8027 15.0348 17.4771C15.8209 17.1515 16.4927 16.6001 16.9654 15.8927C17.4381 15.1853 17.6903 14.3536 17.6903 13.5028C17.6903 12.362 17.2371 11.2678 16.4304 10.4611C15.6237 9.65438 14.5295 9.20117 13.3887 9.20117Z" fill="#323238"/>
</g>
<defs>
<clipPath id="clip0_186:1689">
<rect width="25.8101" height="25.8101" fill="white" transform="translate(0.483398 0.597618)"/>
</clipPath>
</defs>
</svg>
