<svg width="67" height="59" viewBox="0 0 67 59" fill="none" xmlns="http://www.w3.org/2000/svg">
<path fill-rule="evenodd" clip-rule="evenodd" d="M30.6833 0.0451642C30.467 0.074752 29.5823 0.192973 28.7172 0.307805C21.8504 1.21943 15.0686 4.56885 9.9456 9.57872C6.48115 12.9667 3.57429 17.4507 1.93756 21.9311C1.28467 23.7185 0.574242 26.5279 0.256777 28.5786C-0.0811347 30.761 -0.0866404 35.8865 0.246815 38.0285C1.42662 45.6075 4.66432 51.883 10.1551 57.2331L11.8725 58.9064L12.4166 58.4779C12.7159 58.2422 15.4147 56.7193 18.4141 55.0935C24.4255 51.8352 24.8719 51.5218 25.3631 50.2167C25.6046 49.5746 25.6369 49.2041 25.6369 47.0718V44.6547L24.7943 43.3945C24.331 42.7014 23.6539 41.5415 23.2896 40.8169C22.679 39.6022 21.7049 36.9974 21.7044 36.5781C21.7042 36.4797 21.4621 36.1726 21.1663 35.8958C20.1603 34.9546 20.0662 34.5741 20.0662 31.4461C20.0662 29.9407 20.1125 28.4927 20.1688 28.2285C20.2253 27.9641 20.4761 27.4524 20.7259 27.0911L21.1803 26.4342L21.1826 22.3578C21.1852 17.6844 21.2668 17.0659 22.1039 15.3772C23.9888 11.5747 28.4475 9.78584 35.1117 10.1585C39.9525 10.4292 43.3432 12.2385 44.9017 15.3826C45.7357 17.0655 45.8176 17.687 45.8203 22.3578L45.8225 26.4342L46.2769 27.0911C46.5268 27.4524 46.7775 27.9641 46.834 28.2285C46.8904 28.4927 46.9361 29.9407 46.9355 31.4461C46.9344 33.9521 46.9111 34.2336 46.6584 34.779C46.3303 35.4873 45.5552 36.2718 44.9789 36.4791C44.6262 36.6059 44.52 36.7562 44.2634 37.4912C43.5427 39.5559 41.8828 42.5777 40.6201 44.1233L40.1666 44.6786L40.2092 47.2515C40.2507 49.7602 40.2608 49.8429 40.6162 50.5624C40.8166 50.9681 41.2132 51.5092 41.4977 51.7648C41.8252 52.0591 44.1723 53.3037 47.899 55.1597C51.1352 56.7714 54.0528 58.2947 54.3826 58.545L54.982 59L56.1191 57.979C61.8066 52.8728 65.5411 45.8677 66.7547 38.0285C67.0861 35.8887 67.0807 30.7584 66.7449 28.5786C65.2731 19.0253 60.0996 10.9115 52.0719 5.5665C47.9606 2.82916 43.3386 1.05024 38.3512 0.285778C37.0466 0.0858313 31.6273 -0.0842665 30.6833 0.0451642Z" fill="url(#paint0_linear_186:1892)"/>
<defs>
<linearGradient id="paint0_linear_186:1892" x1="33.5" y1="0" x2="33.5" y2="59" gradientUnits="userSpaceOnUse">
<stop stop-color="#8BF998"/>
<stop offset="1" stop-color="#64F9C5"/>
</linearGradient>
</defs>
</svg>
