<svg width="40" height="40" viewBox="0 0 40 40" fill="none" xmlns="http://www.w3.org/2000/svg">
<rect x="0.5" y="0.5" width="39" height="39" rx="3.5" stroke="#EAEDF3"/>
<path d="M24.7654 19.7242C24.6108 19.4973 24.3962 19.3203 24.1236 19.1915C23.8508 19.0644 23.5415 19 23.1943 19C22.8488 19 22.5377 19.0644 22.2633 19.1915C22.1741 19.2334 22.0923 19.28 22.016 19.3315C21.9959 19.3444 21.9941 19.3702 22.0141 19.3847C22.1395 19.4812 22.2469 19.5955 22.3359 19.7242C22.385 19.7983 22.4269 19.8739 22.4614 19.9544C22.4741 19.9834 22.5179 19.9898 22.5396 19.9657C22.5559 19.9464 22.5741 19.9286 22.5923 19.9126C22.7506 19.7661 22.9525 19.6937 23.1979 19.6937C23.4415 19.6937 23.6434 19.7661 23.7998 19.9126C23.9563 20.059 24.0344 20.2538 24.0344 20.5C24.0344 20.7446 23.9563 20.941 23.7998 21.0874C23.6434 21.2339 23.4415 21.3063 23.1979 21.3063C22.9542 21.3063 22.7525 21.2339 22.5923 21.0874C22.5741 21.0697 22.5559 21.052 22.5396 21.0343C22.5179 21.0102 22.4741 21.0166 22.4614 21.0456C22.4269 21.1261 22.385 21.2017 22.3359 21.2758C22.2487 21.4045 22.1414 21.5172 22.0141 21.6153C21.9959 21.6298 21.9959 21.6556 22.016 21.6684C22.0923 21.72 22.1759 21.7666 22.2651 21.8085C22.5396 21.9372 22.8506 22 23.1961 22C23.5415 22 23.8526 21.9356 24.1253 21.8085C24.3981 21.6813 24.6126 21.5027 24.7672 21.2758C24.9219 21.0488 25 20.7913 25 20.5016C24.9982 20.2103 24.92 19.9512 24.7654 19.7242Z" fill="#4C0A91"/>
<path fill-rule="evenodd" clip-rule="evenodd" d="M19.1933 21.2749C19.3231 21.5021 19.5012 21.681 19.7292 21.8082C19.9572 21.9371 20.2154 22.0016 20.5022 22C20.7906 22 21.0473 21.9371 21.2737 21.8082C21.5003 21.681 21.6784 21.5021 21.8066 21.2749C21.935 21.0462 22 20.7884 22 20.5C22 20.21 21.935 19.9522 21.8066 19.725C21.6784 19.4978 21.5003 19.3206 21.2737 19.1917C21.0473 19.0644 20.7891 19 20.5022 19C20.2154 19 19.9572 19.0644 19.7292 19.1917C19.4997 19.3206 19.3216 19.4978 19.1933 19.725C19.0649 19.9538 19 20.2116 19 20.5C19 20.79 19.0649 21.0478 19.1933 21.2749ZM21.1967 20.5C21.1967 20.7465 21.1318 20.9414 21.002 21.0881C20.8721 21.2347 20.706 21.3088 20.5022 21.3072C20.2984 21.3072 20.1308 21.2347 19.9995 21.0881C19.8681 20.9414 19.8017 20.7449 19.8017 20.5C19.8017 20.2535 19.8681 20.0585 19.9995 19.9119C20.1323 19.7653 20.2999 19.6928 20.5022 19.6928C20.7045 19.6928 20.8721 19.7653 21.002 19.9119C21.1318 20.0585 21.1967 20.2551 21.1967 20.5Z" fill="#4C0A91"/>
<path d="M18.664 19.3286C18.888 19.5477 19 19.8747 19 20.3063V21.9984H18.1493V20.4387C18.1493 20.2049 18.099 20.03 17.9968 19.9139C17.8945 19.7978 17.7484 19.7406 17.5552 19.7406C17.3409 19.7406 17.1705 19.8077 17.0422 19.9417C16.9156 20.0758 16.8506 20.2736 16.8506 20.5384V22H16V19.0425H16.8133V19.3891C16.9253 19.2649 17.0666 19.1684 17.2338 19.1014C17.401 19.0344 17.5844 19 17.7841 19C18.1477 18.9984 18.4416 19.1079 18.664 19.3286Z" fill="#4C0A91"/>
<path d="M28 21.3313V22H25V21.4757L26.7129 19.6687H25.0448V19H27.9442V19.5243L26.2312 21.3313H28Z" fill="#4C0A91"/>
<path d="M31 21.3313V22H28V21.4757L29.7129 19.6687H28.0448V19H30.9442V19.5243L29.2312 21.3313H31Z" fill="#4C0A91"/>
<path d="M31 18H32V22H31V18Z" fill="#4C0A91"/>
<path fill-rule="evenodd" clip-rule="evenodd" d="M32.8311 20.7417H34.9842C34.9952 20.5999 35 20.5242 35 20.5113C35 20.2068 34.9354 19.9409 34.8063 19.7121C34.6773 19.4817 34.4994 19.3061 34.2744 19.1837C34.0478 19.0612 33.7959 19 33.5173 19C33.2324 19 32.9743 19.0644 32.743 19.1917C32.5116 19.3206 32.3305 19.4995 32.1983 19.7283C32.0662 19.957 32 20.2148 32 20.5C32 20.79 32.0678 21.0478 32.2015 21.275C32.3353 21.5022 32.5258 21.681 32.7729 21.8083C33.02 21.9356 33.3032 22 33.6244 22C34.139 22 34.5309 21.8437 34.7985 21.5295L34.3594 21.043C34.2618 21.1413 34.1547 21.2121 34.0398 21.2573C33.9265 21.3024 33.7943 21.3249 33.6463 21.3249C33.4307 21.3249 33.2514 21.2734 33.1066 21.1686C32.9618 21.0655 32.8704 20.9221 32.8311 20.7417ZM32.8216 20.2487C32.8499 20.0602 32.9271 19.9119 33.0545 19.804C33.1806 19.696 33.3379 19.6429 33.5236 19.6429C33.7077 19.6429 33.8621 19.6976 33.9896 19.8072C34.117 19.9168 34.1942 20.065 34.2225 20.2487H32.8216Z" fill="#4C0A91"/>
<path d="M12.179 23C11.2693 23 10.4242 22.635 9.88923 22.0055L8.40627 20.247L7.75454 21.5607L7 21.2903L7.79811 19.6855L7.80507 19.6752C7.9044 19.5082 8.09435 19.3988 8.31566 19.384C8.53523 19.3693 8.74433 19.4505 8.87329 19.6027L10.5566 21.5991C10.9609 22.0749 11.6161 22.338 12.3097 22.301C12.991 22.2656 13.5905 21.9434 13.9164 21.4395C13.9303 21.4174 13.946 21.3937 13.9582 21.3701C14.2109 20.9371 14.2527 20.445 14.0767 19.981C13.9007 19.5185 13.5278 19.1388 13.0259 18.9112C12.3533 18.6112 11.5604 18.623 10.8999 18.9452L10.4904 18.3437C11.3948 17.9004 12.4857 17.8857 13.4093 18.3009C14.0993 18.6127 14.6134 19.1343 14.8539 19.7712C15.0943 20.4066 15.0368 21.0849 14.6901 21.6804C14.6709 21.7129 14.6517 21.7439 14.6326 21.775C14.1725 22.4887 13.3221 22.9468 12.3585 22.997C12.2992 22.9985 12.2382 23 12.179 23Z" fill="#FF2E86"/>
<path d="M8.00442 23C7.52019 23 7.03595 22.8996 6.59005 22.6987C5.90028 22.387 5.38644 21.8657 5.14607 21.2291C4.90569 20.594 4.96317 19.916 5.3098 19.3208C5.32896 19.2883 5.34812 19.2573 5.36728 19.2263C5.82886 18.5129 6.67888 18.0565 7.64212 18.0048C8.61754 17.9531 9.53898 18.3238 10.1103 18.9944L11.5926 20.752L12.2458 19.4389L13 19.7092L12.2022 21.3133L12.1953 21.3236C12.096 21.4905 11.9061 21.5998 11.6849 21.6146C11.4654 21.6293 11.2564 21.5481 11.1275 21.396L9.44316 19.4005C9.03907 18.9249 8.38414 18.662 7.69088 18.699C7.01158 18.7344 6.41064 19.0564 6.08666 19.5601C6.07272 19.5822 6.05705 19.6058 6.04485 19.6295C5.79229 20.0622 5.75048 20.5541 5.92641 21.0179C6.10233 21.4802 6.47509 21.8597 6.97673 22.0872C7.64735 22.39 8.44162 22.3782 9.10004 22.0562L9.50936 22.6573C9.03907 22.8848 8.52175 23 8.00442 23Z" fill="#FF2E86"/>
</svg>
