<svg width="79" height="75" viewBox="0 0 79 75" fill="none" xmlns="http://www.w3.org/2000/svg">
<path d="M78.6846 37.2886C78.6846 57.734 61.3463 74.3272 39.9346 74.3272C18.5228 74.3272 1.18457 57.734 1.18457 37.2886C1.18457 16.8432 18.5228 0.25 39.9346 0.25C61.3463 0.25 78.6846 16.8432 78.6846 37.2886Z" fill="url(#paint0_linear_186:1871)" stroke="#928F8F" stroke-width="0.5"/>
<path d="M40.7057 10.7646L40.3384 11.9574V46.5661L40.7057 46.9165L57.5076 37.4205L40.7057 10.7646Z" fill="#343434"/>
<path d="M40.736 10.7646L23.9336 37.4205L40.736 46.9165V30.1184V10.7646Z" fill="#8C8C8C"/>
<path d="M40.7094 49.9581L40.5024 50.1994V62.5276L40.7094 63.1053L57.5217 40.4671L40.7094 49.9581Z" fill="#3C3C3B"/>
<path d="M40.7291 63.1052V49.958L23.9268 40.4669L40.7291 63.1052Z" fill="#8C8C8C"/>
<path d="M40.7124 46.9159L57.5144 37.4199L40.7124 30.1178V46.9159Z" fill="#141414"/>
<path d="M23.9268 37.4199L40.7291 46.9159V30.1178L23.9268 37.4199Z" fill="#393939"/>
<defs>
<linearGradient id="paint0_linear_186:1871" x1="39.9346" y1="0" x2="39.9346" y2="74.5772" gradientUnits="userSpaceOnUse">
<stop stop-color="#3C3D3D"/>
<stop offset="1" stop-color="#3C3D3D" stop-opacity="0"/>
</linearGradient>
</defs>
</svg>
