<svg width="38" height="72" viewBox="0 0 38 72" fill="none" xmlns="http://www.w3.org/2000/svg">
<path fill-rule="evenodd" clip-rule="evenodd" d="M9.24137 0.492279C8.74804 0.897354 7.87598 4.09435 4.31617 18.546C1.937 28.2048 0.06206 36.3347 0.149546 36.6123C0.237311 36.89 0.632815 37.3738 1.02888 37.6872C1.69047 38.211 2.15082 38.2571 6.70317 38.2571H11.6577L5.83082 53.9397C2.62598 62.565 0.00224536 69.8496 9.29502e-06 70.1272C-0.00194726 70.4051 0.305232 70.943 0.682568 71.3228C1.49705 72.1427 2.76071 72.2294 3.57519 71.5211C4.14064 71.0291 37.1094 25.3588 37.6983 24.2516C38.1606 23.3818 38.0827 22.9025 37.3355 22.0276L36.6619 21.2383L31.9067 21.0977L27.1517 20.957L32.571 11.8147C35.5517 6.78641 37.9949 2.38179 37.9999 2.02678C38.0052 1.6715 37.7006 1.07035 37.3232 0.690597L36.6373 0H23.2391C10.8938 0 9.79396 0.0388197 9.24137 0.492279Z" fill="url(#paint0_linear_186:1896)"/>
<defs>
<linearGradient id="paint0_linear_186:1896" x1="19" y1="0" x2="19" y2="72" gradientUnits="userSpaceOnUse">
<stop offset="0.140625" stop-color="#3379DA"/>
<stop offset="0.90625" stop-color="#72F9B5"/>
</linearGradient>
</defs>
</svg>
