<svg width="73" height="89" viewBox="0 0 73 89" fill="none" xmlns="http://www.w3.org/2000/svg">
<path fill-rule="evenodd" clip-rule="evenodd" d="M42.195 44.7937C46.4994 45.7904 50.7968 43.109 51.7935 38.8046C52.7903 34.5002 50.1089 30.2028 45.8045 29.2061C41.5001 28.2094 37.2027 30.8908 36.206 35.1951C35.2093 39.4995 37.8906 43.7969 42.195 44.7937ZM42.9921 33.5667C43.4486 33.6447 43.965 33.7361 44.3196 33.8017C44.5349 33.8415 44.7417 33.8844 44.779 33.897C44.8164 33.9095 45.162 34.0036 45.5468 34.1059C45.9317 34.2083 46.2657 34.3049 46.2889 34.3205C46.3121 34.3362 46.4003 34.365 46.4849 34.3846C46.5694 34.4042 46.6452 34.4303 46.6533 34.4426C46.6614 34.4549 46.7295 34.4844 46.8046 34.5081C46.8797 34.5319 47.054 34.593 47.1919 34.6439C47.3298 34.6948 47.4863 34.7514 47.5396 34.7697C47.593 34.7879 47.6432 34.813 47.6513 34.8254C47.6594 34.8378 47.7026 34.8564 47.7474 34.8668C47.7923 34.8771 47.8355 34.8957 47.8436 34.908C47.8517 34.9203 47.893 34.9434 47.9354 34.9594C48.1718 35.0486 48.3279 35.1177 48.3247 35.1315C48.3227 35.1402 48.3575 35.1557 48.402 35.166C48.4971 35.188 48.5324 35.2316 48.4971 35.2833C48.4836 35.3032 48.4662 35.344 48.4585 35.3741C48.4507 35.4042 48.4354 35.4267 48.4244 35.4242C48.4135 35.4217 48.3995 35.4416 48.3933 35.4685C48.387 35.4954 48.3717 35.5208 48.3592 35.5251C48.3467 35.5294 48.3315 35.5543 48.3254 35.5805C48.3194 35.6068 48.3051 35.6314 48.2936 35.6353C48.2822 35.6392 48.2585 35.6769 48.241 35.7192C48.2235 35.7614 48.1998 35.7991 48.1884 35.803C48.1769 35.8069 48.1625 35.8321 48.1563 35.8589C48.1501 35.8858 48.1383 35.9062 48.1301 35.9043C48.1219 35.9024 48.0847 35.9532 48.0474 36.017C47.9808 36.1311 47.9607 36.1608 47.9026 36.231C47.8866 36.2503 47.8715 36.275 47.869 36.2859C47.8665 36.2967 47.8291 36.3523 47.7859 36.4093C47.7427 36.4663 47.6955 36.5292 47.681 36.549L47.577 36.691C47.5343 36.7492 47.4965 36.8093 47.493 36.8244C47.4895 36.8396 47.4799 36.8504 47.4717 36.8486C47.4635 36.8467 47.4299 36.884 47.397 36.9314C47.364 36.9789 47.2923 37.0752 47.2375 37.1455C47.1827 37.2157 47.1356 37.2831 47.1328 37.2952C47.13 37.3073 47.1187 37.3151 47.1078 37.3125C47.0969 37.31 47.0839 37.3252 47.0791 37.3463C47.0742 37.3674 47.0628 37.3861 47.0537 37.3879C47.0289 37.3927 46.8804 37.5713 46.8724 37.6058C46.8686 37.6224 46.8586 37.6344 46.8502 37.6325C46.8419 37.6305 46.8119 37.6592 46.7836 37.6961C46.7554 37.7331 46.6964 37.8025 46.6526 37.8503C46.6088 37.8982 46.5353 37.9808 46.4894 38.0339C46.4434 38.0871 46.3995 38.1339 46.3919 38.1379C46.3843 38.1419 46.3692 38.1574 46.3583 38.1723C46.3475 38.1872 46.2943 38.2461 46.2402 38.3031C46.1861 38.3602 46.1269 38.4247 46.1087 38.4466C46.0904 38.4685 46.068 38.4847 46.0588 38.4825C46.0497 38.4804 46.038 38.4967 46.0329 38.5187C46.0278 38.5407 46.0147 38.5567 46.0037 38.5541C45.9928 38.5516 45.9809 38.5623 45.9773 38.5779C45.9737 38.5935 45.9633 38.6077 45.9543 38.6095C45.9306 38.6141 45.7902 38.7528 45.7846 38.7771C45.782 38.7883 45.7709 38.7955 45.76 38.7929C45.7491 38.7904 45.7381 38.7972 45.7356 38.8081C45.733 38.819 45.6597 38.8915 45.5726 38.9693C45.4855 39.047 45.412 39.1203 45.4093 39.132C45.4066 39.1438 45.3968 39.1517 45.3876 39.1496C45.3784 39.1474 45.3467 39.1733 45.3172 39.2071C45.2877 39.2408 45.2566 39.2668 45.2482 39.2649C45.2397 39.2629 45.2297 39.2748 45.2258 39.2913C45.222 39.3079 45.2122 39.3199 45.204 39.3181C45.1957 39.3162 45.1606 39.3411 45.1259 39.3734C45.0912 39.4056 45.0415 39.4476 45.0153 39.4668C44.9892 39.486 44.9663 39.5079 44.9645 39.5156C44.9628 39.5233 44.9279 39.5517 44.8871 39.5786C44.8463 39.6056 44.8113 39.6345 44.8091 39.6428C44.807 39.6511 44.7735 39.6808 44.7345 39.7089C44.6956 39.7369 44.6347 39.7868 44.5993 39.8198C44.5638 39.8527 44.5281 39.8782 44.5198 39.8764C44.5116 39.8745 44.5025 39.8832 44.4997 39.8957C44.4968 39.9082 44.4749 39.9292 44.4511 39.9425C44.4273 39.9557 44.3731 39.9965 44.3307 40.033C44.2883 40.0696 44.2228 40.1209 44.1851 40.1469C44.1474 40.173 44.1153 40.1999 44.1137 40.2066C44.1121 40.2134 44.0554 40.2543 43.9879 40.2976C43.9203 40.3408 43.8637 40.3816 43.8622 40.3882C43.8595 40.3997 43.7895 40.4478 43.4825 40.6491C43.4044 40.7003 43.3394 40.7468 43.3381 40.7525C43.3357 40.7628 43.1132 40.9004 43.1028 40.898C43.0884 40.8947 42.7053 40.2313 42.6572 40.1264C42.6415 40.0922 42.5963 40.0107 42.5567 39.9453C42.5171 39.8799 42.4864 39.8194 42.4884 39.8109C42.4904 39.8023 42.4684 39.7546 42.4396 39.7049C42.4108 39.6552 42.3884 39.6097 42.3898 39.6037C42.3912 39.5977 42.3772 39.5665 42.3587 39.5343C42.3086 39.4469 42.2892 39.4053 42.2922 39.3922C42.2937 39.3858 42.2798 39.3541 42.2614 39.3219C42.2054 39.2244 42.1919 39.1926 42.1969 39.1708C42.1996 39.1593 42.195 39.1483 42.1869 39.1463C42.1787 39.1444 42.1581 39.1066 42.1411 39.0624C42.1241 39.0181 42.0991 38.9608 42.0855 38.935C42.072 38.9092 42.0491 38.8599 42.0348 38.8256C42.0204 38.7912 42.0002 38.7487 41.9899 38.731C41.9796 38.7133 41.9725 38.6931 41.9742 38.686C41.9758 38.6789 41.9689 38.658 41.9588 38.6395C41.9151 38.5596 41.9048 38.5334 41.9094 38.5137C41.912 38.5022 41.9072 38.4912 41.8986 38.4893C41.89 38.4873 41.8727 38.4524 41.86 38.4118C41.8474 38.3711 41.825 38.3167 41.8102 38.2908C41.7955 38.2649 41.7862 38.2319 41.7895 38.2175C41.7929 38.2031 41.7881 38.1895 41.7789 38.1874C41.7697 38.1852 41.7526 38.1481 41.7409 38.1048C41.7292 38.0615 41.7127 38.0244 41.7043 38.0225C41.6959 38.0205 41.6919 38.0062 41.6955 37.9906C41.6991 37.975 41.6961 37.9577 41.6887 37.9521C41.6695 37.9375 41.6044 37.7512 41.61 37.7269C41.6126 37.7157 41.6079 37.7049 41.5996 37.703C41.5912 37.7011 41.5796 37.6803 41.5736 37.6568C41.5677 37.6333 41.534 37.5249 41.4988 37.416C41.4635 37.3071 41.4366 37.2098 41.4389 37.1999C41.4412 37.1899 41.4342 37.1797 41.4232 37.1771C41.4123 37.1746 41.4063 37.1598 41.4099 37.1442C41.4136 37.1286 41.4105 37.1113 41.4031 37.1057C41.3958 37.1001 41.3803 37.0554 41.3688 37.0064C41.3572 36.9573 41.3442 36.9116 41.34 36.9048C41.3357 36.898 41.321 36.8485 41.3075 36.7948C41.2702 36.6473 41.2437 36.5568 41.2336 36.5428C41.2286 36.5358 41.2172 36.4834 41.2082 36.4262C41.1993 36.3691 41.1852 36.3208 41.1771 36.3189C41.1689 36.3169 41.1662 36.2981 41.1711 36.277C41.176 36.2559 41.1739 36.2341 41.1666 36.2285C41.1488 36.215 41.0935 35.979 41.1008 35.9475C41.1039 35.934 41.0976 35.9208 41.0866 35.9182C41.0757 35.9157 41.0688 35.9049 41.0713 35.8942C41.0781 35.8645 41.0236 35.6199 41.0075 35.6082C40.9997 35.6025 40.9972 35.5811 41.002 35.5606C41.0067 35.5401 40.998 35.4758 40.9827 35.4177C40.9674 35.3596 40.9576 35.2999 40.9611 35.285C40.9645 35.2701 40.9584 35.2559 40.9475 35.2534C40.9365 35.2508 40.9315 35.2321 40.9362 35.2118C40.944 35.1781 40.9306 35.0854 40.9036 34.9852C40.8977 34.9637 40.8962 34.9325 40.9 34.9158C40.9039 34.8991 40.8981 34.8834 40.8872 34.8809C40.8762 34.8784 40.8715 34.8583 40.8766 34.8363C40.8817 34.8143 40.878 34.7944 40.8684 34.7922C40.8589 34.79 40.8519 34.76 40.853 34.7255C40.8541 34.691 40.8456 34.6209 40.8342 34.5696C40.8227 34.5183 40.8171 34.46 40.8218 34.44C40.8264 34.4201 40.8212 34.4017 40.8103 34.3992C40.7993 34.3966 40.795 34.3743 40.8007 34.3495C40.8064 34.3247 40.8036 34.2755 40.7946 34.2402C40.7856 34.2049 40.7821 34.159 40.7869 34.1383C40.7917 34.1175 40.7867 34.0985 40.7758 34.0959C40.7649 34.0934 40.7611 34.0688 40.7675 34.0413C40.7739 34.0138 40.7702 33.9892 40.7592 33.9867C40.7483 33.9841 40.7435 33.9644 40.7485 33.9427C40.7587 33.8984 40.7469 33.7183 40.7299 33.6586C40.7237 33.637 40.7227 33.6017 40.7277 33.5802C40.7327 33.5587 40.7291 33.5335 40.7198 33.5241C40.6875 33.4919 40.7189 33.4395 40.778 33.4269C40.8106 33.42 40.8668 33.4211 40.9029 33.4295C40.939 33.4378 40.9706 33.4356 40.9731 33.4246C40.9757 33.4136 41.0088 33.4118 41.0468 33.4206C41.1185 33.4372 41.391 33.4494 41.5047 33.4411C41.5407 33.4385 41.603 33.444 41.6432 33.4533C41.6834 33.4626 41.7182 33.462 41.7205 33.452C41.7229 33.4419 41.7772 33.4412 41.8413 33.4503C41.9054 33.4595 42.0776 33.4787 42.224 33.493C42.3704 33.5074 42.5447 33.5275 42.6115 33.5377C42.6782 33.5479 42.7526 33.552 42.7769 33.5468C42.8011 33.5417 42.8979 33.5506 42.9921 33.5667ZM46.4412 35.8511C46.4482 35.821 46.3322 35.7781 45.6602 35.562C45.3693 35.4684 43.4885 35.0118 43.4622 35.0283C43.4517 35.035 43.3328 35.0213 43.1981 34.9978C42.9217 34.9497 42.5252 34.8938 42.4091 34.8865C42.3446 34.8825 42.3298 34.8897 42.3205 34.93C42.3143 34.9565 42.3182 34.9803 42.3292 34.9828C42.3401 34.9854 42.3466 34.9981 42.3436 35.0111C42.338 35.035 42.3478 35.0871 42.4198 35.4174C42.4413 35.5165 42.4568 35.6071 42.4541 35.6187C42.4514 35.6303 42.4556 35.6444 42.4634 35.6501C42.479 35.6614 42.5342 35.9059 42.5276 35.9344C42.5253 35.9442 42.5296 35.9568 42.5371 35.9624C42.5446 35.968 42.5695 36.0505 42.5924 36.1457C42.6154 36.2409 42.6415 36.3205 42.6506 36.3226C42.6597 36.3247 42.6643 36.3386 42.6609 36.3534C42.6547 36.38 42.7803 36.8241 42.81 36.8805C42.8184 36.8965 42.8232 36.9182 42.8208 36.9287C42.8183 36.9393 42.8223 36.9525 42.8297 36.958C42.837 36.9636 42.8525 37.0083 42.864 37.0574C42.8756 37.1064 42.8896 37.1524 42.8952 37.1595C42.915 37.1847 42.9968 37.4344 42.992 37.455C42.9893 37.4666 42.9947 37.4778 43.0039 37.4799C43.0131 37.482 43.0302 37.5192 43.0419 37.5625C43.0536 37.6058 43.07 37.6428 43.0785 37.6448C43.0869 37.6467 43.0907 37.6618 43.0869 37.6784C43.083 37.6949 43.0878 37.7102 43.0974 37.7124C43.107 37.7146 43.1194 37.7441 43.1249 37.7779C43.1305 37.8117 43.1515 37.8684 43.1716 37.9038C43.1917 37.9392 43.206 37.9776 43.2033 37.9891C43.2007 38.0006 43.2055 38.0116 43.2141 38.0136C43.2227 38.0156 43.24 38.0504 43.2526 38.091C43.2651 38.1317 43.2827 38.1767 43.2915 38.1912C43.3003 38.2057 43.3222 38.2558 43.3401 38.3025C43.3581 38.3492 43.3795 38.3891 43.3877 38.3911C43.3959 38.393 43.4002 38.4049 43.3973 38.4173C43.3944 38.4298 43.4046 38.4582 43.4199 38.4805C43.4351 38.5028 43.4582 38.5514 43.4712 38.5884C43.4841 38.6255 43.515 38.6923 43.5397 38.7368L43.5847 38.8178L43.6369 38.7818C43.6655 38.7619 43.7239 38.7158 43.7665 38.6793C43.8092 38.6428 43.8553 38.6052 43.869 38.5958C43.8827 38.5863 43.9175 38.5578 43.9465 38.5323C43.9754 38.5068 44.013 38.4766 44.03 38.4653C44.0471 38.454 44.0623 38.4389 44.0639 38.4318C44.0656 38.4247 44.081 38.409 44.0982 38.3968C44.1699 38.3461 44.1932 38.3256 44.1969 38.31C44.1989 38.3009 44.2215 38.2847 44.2471 38.2739C44.2726 38.2631 44.2957 38.2449 44.2983 38.2334C44.301 38.222 44.3311 38.1935 44.3653 38.1702C44.3995 38.1468 44.4305 38.1146 44.4343 38.0985C44.438 38.0824 44.4484 38.0678 44.4575 38.066C44.478 38.062 44.6163 37.9451 44.6202 37.9285C44.6217 37.9218 44.6426 37.9029 44.6665 37.8865C44.6905 37.8701 44.7359 37.8265 44.7673 37.7895C44.7988 37.7525 44.8309 37.719 44.8387 37.715C44.867 37.7005 45.0521 37.51 45.0565 37.4909C45.059 37.4801 45.0679 37.4728 45.0762 37.4747C45.0846 37.4767 45.1042 37.4632 45.1198 37.4447C45.1355 37.4262 45.1738 37.3806 45.2051 37.3432C45.2363 37.3058 45.2755 37.2664 45.2921 37.2556C45.3088 37.2449 45.3409 37.2072 45.3636 37.172C45.3863 37.1368 45.412 37.1096 45.4207 37.1117C45.4295 37.1137 45.4397 37.1018 45.4436 37.0853C45.4474 37.0688 45.4595 37.0574 45.4704 37.0599C45.4813 37.0624 45.4944 37.0465 45.4995 37.0245C45.5046 37.0024 45.516 36.9861 45.5249 36.9881C45.5337 36.9902 45.5663 36.9574 45.5974 36.9153C45.6285 36.8732 45.6604 36.8355 45.6682 36.8315C45.6917 36.8195 45.842 36.6305 45.8477 36.6057C45.8507 36.593 45.8605 36.5812 45.8695 36.5794C45.8915 36.5751 46.0448 36.3875 46.0521 36.356C46.0553 36.3424 46.0668 36.3334 46.0777 36.3359C46.0886 36.3384 46.1018 36.3225 46.1069 36.3005C46.112 36.2785 46.1228 36.262 46.1311 36.2638C46.1393 36.2657 46.173 36.2284 46.206 36.181C46.239 36.1336 46.3045 36.0442 46.3515 35.9823C46.3985 35.9204 46.4389 35.8614 46.4412 35.8511Z" fill="url(#paint0_linear_186:1897)"/>
<path fill-rule="evenodd" clip-rule="evenodd" d="M63.7993 34.5986C68.8807 34.5986 73 30.4793 73 25.3979C73 20.3166 68.8807 16.1973 63.7993 16.1973C58.7179 16.1973 54.5986 20.3166 54.5986 25.3979C54.5986 30.4793 58.7179 34.5986 63.7993 34.5986ZM61.7795 21.8128C62.3112 21.7817 62.9136 21.7502 63.3278 21.7317C63.5794 21.7204 63.8222 21.7148 63.8674 21.7192C63.9126 21.7236 64.3241 21.7393 64.7819 21.7541C65.2397 21.7689 65.6389 21.7905 65.669 21.802C65.6991 21.8136 65.8054 21.823 65.9052 21.823C66.005 21.823 66.0966 21.8325 66.1089 21.8442C66.1212 21.8559 66.2051 21.8713 66.2954 21.8784C66.3857 21.8855 66.5969 21.9088 66.7646 21.9301C66.9323 21.9514 67.1223 21.9742 67.1869 21.9808C67.2514 21.9874 67.3142 22.0024 67.3264 22.0142C67.3387 22.026 67.392 22.0356 67.4449 22.0356C67.4978 22.0356 67.5511 22.0452 67.5634 22.0569C67.5756 22.0685 67.6279 22.0837 67.6795 22.0907C67.9675 22.1293 68.1604 22.1661 68.1604 22.1825C68.1604 22.1927 68.2034 22.201 68.2559 22.201C68.3681 22.201 68.419 22.2407 68.393 22.3079C68.383 22.3336 68.3741 22.3839 68.3732 22.4196C68.3723 22.4554 68.361 22.4846 68.3481 22.4846C68.3352 22.4846 68.3246 22.5105 68.3246 22.5423C68.3246 22.574 68.3141 22.6065 68.3012 22.6145C68.2883 22.6226 68.2777 22.6545 68.2777 22.6854C68.2777 22.7164 68.2681 22.7477 68.2563 22.755C68.2445 22.7624 68.2278 22.8108 68.2191 22.8626C68.2104 22.9145 68.1936 22.9629 68.1818 22.9702C68.1701 22.9776 68.1604 23.0095 68.1604 23.0412C68.1604 23.073 68.1525 23.0989 68.1428 23.0989C68.1331 23.0989 68.1046 23.1654 68.0794 23.2466C68.0344 23.3917 68.0196 23.4302 67.9727 23.5239C67.9598 23.5497 67.9493 23.5813 67.9493 23.5941C67.9493 23.607 67.9218 23.6789 67.8882 23.754C67.8546 23.829 67.818 23.9117 67.8069 23.9377L67.7272 24.1238C67.6945 24.2001 67.6678 24.2772 67.6678 24.2951C67.6678 24.313 67.6599 24.3276 67.6502 24.3277C67.6405 24.3277 67.6125 24.3782 67.5879 24.4399C67.5633 24.5016 67.5079 24.6281 67.4647 24.7211C67.4216 24.8141 67.3863 24.9018 67.3863 24.916C67.3863 24.9303 67.3757 24.9419 67.3628 24.9419C67.3499 24.9419 67.3393 24.9623 67.3393 24.9872C67.3393 25.0121 67.3314 25.036 67.3217 25.0404C67.2952 25.0522 67.1751 25.2908 67.1751 25.3316C67.1751 25.3512 67.1671 25.3672 67.1572 25.3672C67.1474 25.3672 67.1212 25.4071 67.0991 25.4558C67.077 25.5046 67.029 25.5976 66.9923 25.6626C66.9556 25.7276 66.8947 25.8392 66.857 25.9107C66.8193 25.9821 66.7823 26.0459 66.7748 26.0524C66.7673 26.0589 66.7544 26.0802 66.7461 26.0997C66.7379 26.1192 66.6936 26.1989 66.6477 26.2769C66.6019 26.3549 66.5523 26.4426 66.5376 26.4718C66.5228 26.5011 66.5019 26.525 66.491 26.525C66.4802 26.525 66.4714 26.5463 66.4714 26.5723C66.4714 26.5983 66.4608 26.6195 66.4479 26.6195C66.435 26.6195 66.4244 26.6346 66.4244 26.653C66.4244 26.6714 66.4165 26.69 66.4068 26.6943C66.3815 26.7057 66.2602 26.8975 66.2602 26.9262C66.2602 26.9394 66.2497 26.9503 66.2368 26.9503C66.2239 26.9503 66.2133 26.9608 66.2133 26.9737C66.2133 26.9865 66.15 27.0868 66.0725 27.1965C65.9951 27.3062 65.9318 27.4074 65.9318 27.4212C65.9318 27.4351 65.9229 27.4465 65.912 27.4465C65.9012 27.4465 65.8724 27.4837 65.848 27.5292C65.8237 27.5747 65.7957 27.6119 65.7857 27.6119C65.7757 27.6119 65.7676 27.6278 65.7676 27.6473C65.7676 27.6668 65.7597 27.6829 65.75 27.6829C65.7403 27.683 65.7074 27.72 65.6769 27.7652C65.6464 27.8103 65.6015 27.8703 65.5772 27.8986C65.5529 27.9268 65.533 27.9573 65.533 27.9664C65.533 27.9755 65.5013 28.0163 65.4626 28.0571C65.4239 28.0979 65.3921 28.1394 65.3919 28.1492C65.3917 28.1591 65.3618 28.2011 65.3254 28.2426C65.2891 28.2841 65.2338 28.3558 65.2026 28.402C65.1714 28.4481 65.138 28.4859 65.1283 28.486C65.1186 28.4861 65.1107 28.4982 65.1107 28.5129C65.1107 28.5276 65.0917 28.5569 65.0685 28.5779C65.0452 28.5989 64.9951 28.6586 64.957 28.7106C64.919 28.7626 64.8589 28.837 64.8235 28.876C64.788 28.915 64.759 28.9534 64.759 28.9614C64.7589 28.9694 64.7061 29.0299 64.6415 29.0959C64.577 29.162 64.5243 29.2223 64.5243 29.2301C64.5243 29.2437 64.4583 29.3158 64.1665 29.621C64.0923 29.6986 64.0316 29.7676 64.0316 29.7743C64.0316 29.7864 63.8179 29.9983 63.8057 29.9983C63.7887 29.9983 63.1873 29.3545 63.1062 29.2494C63.0797 29.2151 63.0079 29.1355 62.9466 29.0726C62.8853 29.0096 62.8352 28.9498 62.8352 28.9397C62.8352 28.9296 62.7982 28.8818 62.7531 28.8336C62.7079 28.7854 62.671 28.7402 62.671 28.7331C62.671 28.7261 62.6472 28.6947 62.6182 28.6634C62.5394 28.5785 62.5068 28.537 62.5068 28.5215C62.5068 28.5139 62.483 28.482 62.454 28.4508C62.366 28.356 62.3426 28.3239 62.3426 28.2981C62.3426 28.2846 62.3346 28.2734 62.325 28.2733C62.3153 28.2732 62.2824 28.2363 62.2519 28.1911C62.2214 28.146 62.1785 28.0883 62.1566 28.0628C62.1347 28.0374 62.0963 27.9881 62.0713 27.9534C62.0463 27.9186 62.0127 27.8762 61.9965 27.8591C61.9804 27.8419 61.9672 27.8211 61.9672 27.8127C61.9672 27.8044 61.954 27.7827 61.9379 27.7646C61.8683 27.6864 61.8499 27.6597 61.8499 27.6365C61.8499 27.623 61.8416 27.6119 61.8315 27.6119C61.8214 27.6119 61.7929 27.5773 61.7682 27.5351C61.7435 27.4929 61.7042 27.4377 61.681 27.4125C61.6578 27.3873 61.6388 27.3528 61.6388 27.3357C61.6388 27.3187 61.6299 27.3047 61.619 27.3047C61.6081 27.3047 61.5794 27.2675 61.555 27.222C61.5307 27.1765 61.5027 27.1393 61.4927 27.1393C61.4827 27.1393 61.4746 27.1243 61.4746 27.1059C61.4746 27.0874 61.4666 27.0689 61.457 27.0645C61.4317 27.0532 61.3104 26.8614 61.3104 26.8327C61.3104 26.8194 61.3023 26.8085 61.2925 26.8085C61.2826 26.8085 61.2641 26.7882 61.2514 26.7635C61.2387 26.7387 61.1728 26.626 61.1051 26.5131C61.0373 26.4003 60.9819 26.2983 60.9819 26.2865C60.9819 26.2747 60.9714 26.2651 60.9585 26.2651C60.9456 26.2651 60.935 26.25 60.935 26.2316C60.935 26.2132 60.9271 26.1946 60.9174 26.1903C60.9077 26.1859 60.8788 26.1399 60.8531 26.0879C60.8274 26.0359 60.8011 25.9881 60.7945 25.9816C60.7879 25.9751 60.7587 25.9234 60.7296 25.8668C60.6495 25.7111 60.5964 25.6166 60.5814 25.6035C60.574 25.597 60.5476 25.5412 60.5227 25.4796C60.4979 25.4179 60.4696 25.3674 60.46 25.3673C60.4503 25.3673 60.4424 25.3469 60.4424 25.3219C60.4424 25.297 60.4345 25.2731 60.4248 25.2688C60.4013 25.2583 60.2782 25.0082 60.2782 24.9711C60.2782 24.955 60.2676 24.9419 60.2547 24.9419C60.2418 24.9419 60.2312 24.9316 60.2312 24.9189C60.2312 24.8839 60.1067 24.624 60.0856 24.6151C60.0754 24.6107 60.067 24.5874 60.067 24.5632C60.067 24.5389 60.0406 24.4691 60.0084 24.408C59.9761 24.3469 59.9497 24.2825 59.9497 24.265C59.9497 24.2474 59.9392 24.2331 59.9263 24.2331C59.9134 24.2331 59.9028 24.2134 59.9028 24.1895C59.9028 24.1497 59.8638 24.0493 59.8075 23.944C59.7954 23.9214 59.7855 23.8868 59.7855 23.8672C59.7855 23.8475 59.775 23.8314 59.7621 23.8314C59.7492 23.8314 59.7386 23.8101 59.7386 23.7841C59.7386 23.7581 59.7294 23.7369 59.7181 23.7369C59.7068 23.7369 59.6912 23.705 59.6835 23.6661C59.6758 23.6272 59.6481 23.5508 59.6219 23.4963C59.5958 23.4418 59.5744 23.3779 59.5744 23.3544C59.5744 23.3308 59.5638 23.3116 59.5509 23.3116C59.538 23.3116 59.5274 23.2876 59.5273 23.2584C59.5272 23.2292 59.5114 23.1748 59.4921 23.1376C59.4729 23.1003 59.4571 23.0498 59.4571 23.0253C59.4571 23.0008 59.4465 22.9808 59.4336 22.9808C59.4207 22.9808 59.4102 22.9542 59.4102 22.9217C59.4102 22.8892 59.3996 22.8626 59.3867 22.8626C59.3738 22.8626 59.3633 22.8417 59.3633 22.8162C59.3633 22.7639 59.3033 22.5652 59.2687 22.5026C59.2562 22.4801 59.246 22.4408 59.246 22.4154C59.246 22.39 59.2354 22.3627 59.2225 22.3546C59.178 22.3269 59.1996 22.26 59.2625 22.2306C59.2973 22.2143 59.3605 22.201 59.4031 22.201C59.4457 22.201 59.4805 22.1904 59.4805 22.1774C59.4805 22.1644 59.5172 22.1538 59.562 22.1538C59.6467 22.1538 59.9552 22.0968 60.0804 22.058C60.12 22.0457 60.1913 22.0356 60.2388 22.0356C60.2862 22.0356 60.3251 22.026 60.3251 22.0141C60.3251 22.0023 60.3858 21.9874 60.46 21.981C60.5341 21.9746 60.7321 21.9514 60.8998 21.9295C61.0676 21.9077 61.2681 21.8849 61.3455 21.879C61.423 21.8731 61.5074 21.8584 61.5332 21.8463C61.559 21.8343 61.6699 21.8192 61.7795 21.8128ZM66.2368 23.4774C66.2368 23.4419 66.0957 23.4239 65.2867 23.3561C64.9365 23.3268 62.7107 23.3031 62.6855 23.3285C62.6754 23.3387 62.5387 23.3541 62.3817 23.3628C62.0595 23.3806 61.6007 23.4208 61.4687 23.4428C61.3954 23.455 61.3807 23.467 61.3807 23.5145C61.3807 23.5458 61.3913 23.5715 61.4042 23.5715C61.4171 23.5715 61.4277 23.5841 61.4277 23.5995C61.4277 23.6276 61.4521 23.6835 61.6184 24.0349C61.6683 24.1403 61.7092 24.2378 61.7092 24.2515C61.7092 24.2652 61.7175 24.2799 61.7277 24.2843C61.7481 24.2929 61.8734 24.5525 61.8734 24.5862C61.8734 24.5977 61.8815 24.6107 61.8913 24.6151C61.9012 24.6194 61.9505 24.7053 62.0009 24.8061C62.0513 24.9068 62.1012 24.9892 62.112 24.9892C62.1226 24.9892 62.1314 25.0035 62.1314 25.021C62.1314 25.0524 62.3874 25.5174 62.4353 25.573C62.4488 25.5887 62.4598 25.6117 62.4598 25.6242C62.4598 25.6366 62.4678 25.6504 62.4774 25.6547C62.4871 25.659 62.5161 25.7051 62.5417 25.7571C62.5674 25.8091 62.595 25.8569 62.6031 25.8634C62.6318 25.8865 62.7883 26.1451 62.7883 26.1694C62.7883 26.1831 62.7972 26.1942 62.8081 26.1942C62.8189 26.1942 62.8477 26.2314 62.872 26.2769C62.8964 26.3224 62.9244 26.3596 62.9344 26.3596C62.9443 26.3596 62.9525 26.3756 62.9525 26.395C62.9525 26.4145 62.9618 26.4305 62.9731 26.4305C62.9844 26.4305 63.006 26.4603 63.0209 26.4967C63.0359 26.5332 63.0742 26.5912 63.1059 26.6256C63.1377 26.6601 63.1636 26.6994 63.1636 26.713C63.1636 26.7266 63.1719 26.7377 63.182 26.7377C63.1921 26.7377 63.2206 26.7722 63.2452 26.8144C63.2698 26.8567 63.3012 26.9026 63.3148 26.9166C63.3284 26.9305 63.366 26.9809 63.3982 27.0286C63.4305 27.0763 63.4648 27.1154 63.4745 27.1155C63.4841 27.1156 63.4921 27.1278 63.4921 27.1425C63.4921 27.1572 63.5108 27.1864 63.5337 27.2075C63.5566 27.2285 63.5951 27.2769 63.6192 27.315C63.6433 27.3532 63.6952 27.42 63.7345 27.4635L63.806 27.5426L63.855 27.4887C63.882 27.459 63.9354 27.3922 63.9737 27.3402C64.012 27.2882 64.0539 27.2341 64.0668 27.22C64.0797 27.2059 64.1114 27.1649 64.1372 27.1288C64.163 27.0927 64.1973 27.0492 64.2134 27.0321C64.2296 27.015 64.2427 26.9941 64.2427 26.9858C64.2427 26.9774 64.2559 26.9557 64.2721 26.9376C64.3392 26.8622 64.36 26.8331 64.36 26.8148C64.36 26.8041 64.3811 26.78 64.407 26.7613C64.4328 26.7425 64.4539 26.7162 64.4539 26.7027C64.4539 26.6891 64.4803 26.6494 64.5125 26.6144C64.5448 26.5794 64.5712 26.5352 64.5712 26.5162C64.5712 26.4972 64.5791 26.4781 64.5888 26.4738C64.6107 26.464 64.7354 26.2971 64.7354 26.2775C64.7354 26.2696 64.7539 26.243 64.7764 26.2185C64.799 26.1939 64.8385 26.1332 64.8642 26.0836C64.8899 26.034 64.9172 25.9881 64.9248 25.9816C64.9527 25.958 65.1107 25.6965 65.1107 25.6739C65.1107 25.6612 65.1188 25.6508 65.1286 25.6508C65.1385 25.6508 65.1569 25.6305 65.1697 25.6058C65.1824 25.5811 65.2135 25.5199 65.2389 25.4699C65.2642 25.4199 65.2978 25.3656 65.3137 25.3493C65.3295 25.3329 65.3558 25.2824 65.3721 25.237C65.3883 25.1917 65.4101 25.1546 65.4204 25.1546C65.4307 25.1546 65.4392 25.1386 65.4392 25.1191C65.4392 25.0996 65.4497 25.0837 65.4626 25.0837C65.4755 25.0837 65.4861 25.0624 65.4861 25.0364C65.4861 25.0104 65.4946 24.9892 65.505 24.9892C65.5154 24.9892 65.5435 24.944 65.5675 24.8888C65.5914 24.8335 65.6173 24.783 65.625 24.7765C65.6482 24.757 65.7676 24.5062 65.7676 24.4769C65.7676 24.4619 65.7755 24.4461 65.7852 24.4418C65.8086 24.4313 65.9318 24.1813 65.9318 24.1441C65.9318 24.1281 65.9424 24.1149 65.9553 24.1149C65.9682 24.1149 65.9787 24.0937 65.9787 24.0677C65.9787 24.0417 65.9866 24.0204 65.9963 24.0203C66.006 24.0203 66.0341 23.9698 66.0588 23.9081C66.0835 23.8464 66.1337 23.7292 66.1703 23.6477C66.2068 23.5661 66.2368 23.4895 66.2368 23.4774Z" fill="url(#paint1_linear_186:1897)"/>
<path fill-rule="evenodd" clip-rule="evenodd" d="M51.7007 9.40137C54.2968 9.40137 56.4014 7.2968 56.4014 4.70068C56.4014 2.10457 54.2968 0 51.7007 0C49.1046 0 47 2.10457 47 4.70068C47 7.2968 49.1046 9.40137 51.7007 9.40137ZM50.6689 2.86901C50.9405 2.85315 51.2483 2.83703 51.4599 2.82758C51.5885 2.82185 51.7125 2.81899 51.7356 2.82122C51.7587 2.82345 51.9689 2.83148 52.2028 2.83905C52.4367 2.84662 52.6407 2.85764 52.656 2.86353C52.6714 2.86942 52.7257 2.87424 52.7767 2.87424C52.8277 2.87424 52.8745 2.87912 52.8808 2.88509C52.8871 2.89105 52.9299 2.89891 52.9761 2.90255C53.0222 2.90619 53.1301 2.91807 53.2158 2.92895C53.3015 2.93982 53.3986 2.95147 53.4315 2.95484C53.4645 2.95821 53.4966 2.9659 53.5028 2.97192C53.5091 2.97795 53.5363 2.98288 53.5634 2.98288C53.5904 2.98288 53.6176 2.98776 53.6239 2.99373C53.6301 2.99968 53.6568 3.00745 53.6832 3.01099C53.8304 3.03074 53.9289 3.04956 53.9289 3.05791C53.9289 3.06313 53.9509 3.06739 53.9777 3.06739C54.035 3.06739 54.061 3.08766 54.0477 3.12198C54.0426 3.13511 54.0381 3.16079 54.0376 3.17905C54.0372 3.19732 54.0314 3.21225 54.0248 3.21225C54.0182 3.21225 54.0128 3.2255 54.0128 3.24172C54.0128 3.25793 54.0074 3.27454 54.0008 3.27864C53.9942 3.28275 53.9888 3.29904 53.9888 3.31486C53.9888 3.33067 53.9839 3.34668 53.9779 3.35042C53.9719 3.35418 53.9633 3.37891 53.9589 3.4054C53.9544 3.43188 53.9459 3.45662 53.9399 3.46037C53.9338 3.46411 53.9289 3.48044 53.9289 3.49665C53.9289 3.51286 53.9249 3.52611 53.9199 3.52611C53.915 3.52611 53.9004 3.56007 53.8875 3.60156C53.8645 3.6757 53.857 3.69537 53.833 3.74324C53.8264 3.75643 53.821 3.77258 53.821 3.77913C53.821 3.78568 53.807 3.82242 53.7898 3.86078C53.7727 3.89913 53.754 3.94138 53.7483 3.95466L53.7076 4.04972C53.6909 4.08872 53.6772 4.12811 53.6772 4.13724C53.6772 4.14638 53.6732 4.15387 53.6682 4.1539C53.6633 4.15392 53.649 4.17972 53.6364 4.21124C53.6239 4.24274 53.5955 4.30739 53.5735 4.35489C53.5514 4.40239 53.5334 4.4472 53.5334 4.45448C53.5334 4.46176 53.528 4.46771 53.5214 4.46771C53.5148 4.46771 53.5094 4.47813 53.5094 4.49086C53.5094 4.50358 53.5054 4.5158 53.5004 4.51802C53.4869 4.52408 53.4255 4.64597 53.4255 4.66681C53.4255 4.67682 53.4214 4.68501 53.4164 4.68501C53.4113 4.68501 53.398 4.70538 53.3867 4.73028C53.3754 4.75518 53.3508 4.80271 53.3321 4.8359C53.3134 4.8691 53.2823 4.92614 53.263 4.96266C53.2437 4.99917 53.2248 5.03177 53.221 5.03509C53.2172 5.03841 53.2106 5.04927 53.2064 5.05923C53.2021 5.06919 53.1795 5.10993 53.1561 5.14977C53.1327 5.18961 53.1073 5.23442 53.0998 5.24936C53.0923 5.26431 53.0816 5.27652 53.076 5.27652C53.0705 5.27652 53.066 5.28739 53.066 5.30067C53.066 5.31395 53.0606 5.32481 53.054 5.32481C53.0474 5.32481 53.042 5.3325 53.042 5.34192C53.042 5.35132 53.038 5.36082 53.033 5.36304C53.0201 5.36882 52.9581 5.46684 52.9581 5.48149C52.9581 5.48826 52.9527 5.49382 52.9461 5.49382C52.9395 5.49382 52.9341 5.49919 52.9341 5.50575C52.9341 5.51231 52.9018 5.56354 52.8622 5.6196C52.8227 5.67565 52.7903 5.72732 52.7903 5.73442C52.7903 5.74152 52.7858 5.74732 52.7802 5.74732C52.7747 5.74732 52.7599 5.76634 52.7475 5.78957C52.7351 5.81281 52.7208 5.83183 52.7157 5.83183C52.7106 5.83183 52.7064 5.83997 52.7064 5.84993C52.7064 5.85989 52.7024 5.86808 52.6974 5.86812C52.6925 5.86817 52.6757 5.88707 52.6601 5.91012C52.6445 5.93318 52.6216 5.96384 52.6091 5.97828C52.5967 5.99272 52.5866 6.00831 52.5866 6.01296C52.5866 6.0176 52.5704 6.03845 52.5506 6.05929C52.5308 6.08013 52.5146 6.1013 52.5144 6.10635C52.5143 6.11138 52.4991 6.13286 52.4805 6.15407C52.4619 6.17527 52.4337 6.21191 52.4178 6.23547C52.4018 6.25903 52.3848 6.27835 52.3798 6.2784C52.3749 6.27845 52.3708 6.28464 52.3708 6.29216C52.3708 6.29968 52.3611 6.31461 52.3492 6.32536C52.3374 6.33609 52.3117 6.36661 52.2923 6.39316C52.2729 6.41972 52.2422 6.45775 52.2241 6.47767C52.206 6.49758 52.1911 6.51721 52.1911 6.52129C52.1911 6.52537 52.1641 6.5563 52.1311 6.59003C52.0981 6.62376 52.0712 6.6546 52.0712 6.65859C52.0712 6.66554 52.0375 6.70233 51.8884 6.85828C51.8505 6.89792 51.8195 6.93317 51.8195 6.9366C51.8195 6.9428 51.7103 7.05107 51.7041 7.05107C51.6954 7.05107 51.3881 6.72211 51.3467 6.66844C51.3332 6.65092 51.2965 6.61026 51.2652 6.57809C51.2338 6.54592 51.2082 6.51537 51.2082 6.5102C51.2082 6.50503 51.1894 6.48065 51.1663 6.45601C51.1432 6.43137 51.1243 6.40826 51.1243 6.40466C51.1243 6.40106 51.1122 6.38503 51.0974 6.36906C51.0571 6.32568 51.0404 6.30445 51.0404 6.29655C51.0404 6.29265 51.0283 6.27638 51.0135 6.26041C50.9685 6.21198 50.9565 6.19557 50.9565 6.18241C50.9565 6.1755 50.9525 6.1698 50.9476 6.16975C50.9426 6.1697 50.9258 6.15081 50.9102 6.12775C50.8946 6.1047 50.8727 6.0752 50.8615 6.0622C50.8503 6.04921 50.8307 6.02404 50.818 6.0063C50.8052 5.98854 50.788 5.96685 50.7798 5.95811C50.7715 5.94936 50.7648 5.93871 50.7648 5.93444C50.7648 5.93016 50.758 5.9191 50.7498 5.90985C50.7142 5.8699 50.7048 5.85625 50.7048 5.8444C50.7048 5.83749 50.7006 5.83183 50.6955 5.83183C50.6903 5.83183 50.6757 5.81416 50.6631 5.79259C50.6505 5.77101 50.6304 5.74283 50.6186 5.72995C50.6067 5.71708 50.597 5.69943 50.597 5.69072C50.597 5.68201 50.5924 5.67489 50.5869 5.67489C50.5813 5.67489 50.5666 5.65588 50.5542 5.63264C50.5418 5.6094 50.5274 5.59039 50.5223 5.59039C50.5173 5.59039 50.5131 5.5827 50.5131 5.57328C50.5131 5.56388 50.509 5.55438 50.5041 5.55216C50.4912 5.54638 50.4292 5.44836 50.4292 5.43371C50.4292 5.42694 50.4251 5.42138 50.42 5.42138C50.415 5.42138 50.4056 5.41102 50.3991 5.39835C50.3926 5.38569 50.3589 5.32813 50.3243 5.27046C50.2897 5.2128 50.2614 5.16068 50.2614 5.15467C50.2614 5.14866 50.256 5.14373 50.2494 5.14373C50.2428 5.14373 50.2374 5.13604 50.2374 5.12663C50.2374 5.11722 50.2334 5.10772 50.2284 5.1055C50.2235 5.10329 50.2087 5.07975 50.1956 5.05319C50.1825 5.02664 50.169 5.00219 50.1656 4.99887C50.1623 4.99555 50.1473 4.96916 50.1325 4.94024C50.0916 4.8607 50.0644 4.81244 50.0567 4.80572C50.053 4.8024 50.0395 4.7739 50.0268 4.74239C50.0141 4.71088 49.9997 4.68508 49.9947 4.68505C49.9898 4.68503 49.9857 4.6746 49.9857 4.66186C49.9857 4.64914 49.9817 4.63692 49.9767 4.6347C49.9648 4.62934 49.9018 4.50156 49.9018 4.48261C49.9018 4.47441 49.8964 4.46771 49.8898 4.46771C49.8832 4.46771 49.8779 4.46243 49.8779 4.45597C49.8779 4.43807 49.8142 4.3053 49.8034 4.30072C49.7982 4.2985 49.794 4.28658 49.794 4.2742C49.794 4.26183 49.7805 4.22616 49.764 4.19494C49.7475 4.16372 49.734 4.13084 49.734 4.12187C49.734 4.1129 49.7286 4.10556 49.722 4.10556C49.7155 4.10556 49.7101 4.09553 49.7101 4.08328C49.7101 4.06296 49.6901 4.01165 49.6614 3.95785C49.6552 3.94632 49.6501 3.92866 49.6501 3.91862C49.6501 3.90856 49.6447 3.90034 49.6381 3.90034C49.6316 3.90034 49.6262 3.88948 49.6262 3.8762C49.6262 3.86292 49.6214 3.85205 49.6157 3.85205C49.6099 3.85205 49.602 3.83579 49.598 3.81591C49.5941 3.79603 49.5799 3.75699 49.5665 3.72914C49.5532 3.7013 49.5423 3.66867 49.5423 3.65664C49.5423 3.6446 49.5369 3.63476 49.5303 3.63476C49.5237 3.63476 49.5183 3.62253 49.5182 3.6076C49.5182 3.59267 49.5101 3.56488 49.5002 3.54586C49.4904 3.52684 49.4823 3.50104 49.4823 3.48852C49.4823 3.47601 49.4769 3.46576 49.4704 3.46576C49.4638 3.46576 49.4584 3.45218 49.4584 3.43558C49.4584 3.41898 49.453 3.4054 49.4464 3.4054C49.4398 3.4054 49.4344 3.39473 49.4344 3.38168C49.4344 3.35496 49.4038 3.25341 49.3861 3.22147C49.3797 3.20994 49.3745 3.18989 49.3745 3.17691C49.3745 3.16394 49.3691 3.14996 49.3625 3.14585C49.3397 3.13169 49.3508 3.09752 49.3829 3.08248C49.4007 3.07418 49.433 3.06739 49.4548 3.06739C49.4765 3.06739 49.4943 3.06195 49.4943 3.05532C49.4943 3.04868 49.513 3.04324 49.5359 3.04324C49.5792 3.04324 49.7368 3.01411 49.8008 2.99429C49.821 2.98802 49.8575 2.98288 49.8817 2.98288C49.9059 2.98288 49.9258 2.97794 49.9258 2.97189C49.9258 2.96584 49.9568 2.95821 49.9947 2.95495C50.0326 2.95168 50.1337 2.93986 50.2194 2.92867C50.3051 2.91749 50.4076 2.90588 50.4472 2.90286C50.4867 2.89984 50.5299 2.89233 50.543 2.88617C50.5562 2.88001 50.6129 2.87228 50.6689 2.86901ZM52.9461 3.7195C52.9461 3.70135 52.874 3.69215 52.4607 3.65752C52.2818 3.64252 51.1446 3.63044 51.1318 3.64339C51.1266 3.64861 51.0567 3.6565 50.9765 3.66093C50.8119 3.67003 50.5775 3.69058 50.5101 3.70182C50.4726 3.70806 50.4651 3.71417 50.4651 3.73843C50.4651 3.75445 50.4705 3.76755 50.4771 3.76755C50.4837 3.76755 50.4891 3.77398 50.4891 3.78184C50.4891 3.79625 50.5016 3.82476 50.5866 4.00431C50.6121 4.05818 50.6329 4.10798 50.6329 4.11498C50.6329 4.12197 50.6372 4.1295 50.6424 4.13172C50.6528 4.13615 50.7168 4.26878 50.7168 4.28596C50.7168 4.29186 50.721 4.2985 50.726 4.30072C50.7311 4.30293 50.7562 4.34685 50.782 4.3983C50.8077 4.44975 50.8332 4.49186 50.8387 4.49186C50.8442 4.49186 50.8487 4.49919 50.8487 4.50814C50.8487 4.52417 50.9794 4.76173 51.0039 4.79013C51.0108 4.79814 51.0165 4.80991 51.0165 4.81627C51.0165 4.82265 51.0205 4.82966 51.0255 4.83188C51.0304 4.83409 51.0452 4.85763 51.0583 4.88419C51.0714 4.91075 51.0855 4.93519 51.0897 4.93851C51.1043 4.9503 51.1843 5.08242 51.1843 5.09487C51.1843 5.10182 51.1888 5.10752 51.1944 5.10752C51.1999 5.10752 51.2146 5.12653 51.2271 5.14977C51.2395 5.17301 51.2538 5.19202 51.2589 5.19202C51.264 5.19202 51.2682 5.20017 51.2682 5.21013C51.2682 5.22009 51.2729 5.22824 51.2787 5.22824C51.2845 5.22824 51.2955 5.24346 51.3031 5.26207C51.3108 5.28069 51.3303 5.31032 51.3465 5.32794C51.3628 5.34556 51.376 5.36564 51.376 5.37257C51.376 5.3795 51.3803 5.38517 51.3854 5.38517C51.3906 5.38517 51.4051 5.40282 51.4177 5.4244C51.4303 5.44599 51.4463 5.46945 51.4533 5.47658C51.4602 5.4837 51.4794 5.50946 51.4959 5.53383C51.5124 5.55821 51.5299 5.57819 51.5348 5.57823C51.5398 5.57828 51.5438 5.58447 51.5438 5.59199C51.5438 5.59952 51.5534 5.61445 51.5651 5.62519C51.5768 5.63592 51.5965 5.66066 51.6088 5.68016C51.6211 5.69964 51.6476 5.73378 51.6677 5.756L51.7042 5.79642L51.7293 5.76886C51.743 5.7537 51.7703 5.71956 51.7899 5.693C51.8095 5.66644 51.8309 5.63882 51.8375 5.63161C51.8441 5.62441 51.8602 5.60344 51.8734 5.58501C51.8866 5.56658 51.9041 5.54434 51.9124 5.5356C51.9206 5.52684 51.9274 5.5162 51.9274 5.51192C51.9274 5.50765 51.9341 5.49659 51.9423 5.48733C51.9767 5.4488 51.9873 5.43395 51.9873 5.42456C51.9873 5.4191 51.9981 5.40681 52.0113 5.39724C52.0244 5.38767 52.0352 5.3742 52.0352 5.36729C52.0352 5.36039 52.0487 5.34009 52.0652 5.32219C52.0817 5.3043 52.0952 5.28171 52.0952 5.27202C52.0952 5.26233 52.0992 5.25258 52.1041 5.25036C52.1154 5.24534 52.179 5.16007 52.179 5.15007C52.179 5.14603 52.1885 5.13246 52.2 5.1199C52.2116 5.10735 52.2317 5.07634 52.2448 5.05099C52.258 5.02565 52.2719 5.00219 52.2758 4.99887C52.2901 4.98682 52.3708 4.85324 52.3708 4.84171C52.3708 4.83519 52.3749 4.82987 52.38 4.82987C52.385 4.82987 52.3944 4.81953 52.4009 4.80689L52.4363 4.73748C52.4492 4.71194 52.4664 4.6842 52.4745 4.67583C52.4826 4.66745 52.496 4.64166 52.5043 4.61849C52.5127 4.59531 52.5238 4.57636 52.529 4.57636C52.5343 4.57636 52.5386 4.56821 52.5386 4.55825C52.5386 4.54829 52.544 4.54014 52.5506 4.54014C52.5572 4.54014 52.5626 4.52928 52.5626 4.516C52.5626 4.50272 52.5669 4.49186 52.5723 4.49186C52.5776 4.49186 52.5919 4.46878 52.6042 4.44055C52.6164 4.41233 52.6296 4.38653 52.6335 4.38321C52.6454 4.37323 52.7064 4.2451 52.7064 4.23013C52.7064 4.22248 52.7104 4.21441 52.7154 4.21219C52.7274 4.20683 52.7903 4.07909 52.7903 4.06012C52.7903 4.05191 52.7957 4.0452 52.8023 4.0452C52.8089 4.0452 52.8143 4.03434 52.8143 4.02106C52.8143 4.00778 52.8183 3.99689 52.8233 3.99687C52.8282 3.99684 52.8426 3.97104 52.8552 3.93953C52.8678 3.90802 52.8934 3.84814 52.9121 3.80648C52.9308 3.76482 52.9461 3.72569 52.9461 3.7195Z" fill="url(#paint2_linear_186:1897)"/>
<path fill-rule="evenodd" clip-rule="evenodd" d="M32.5823 0.495322C30.3671 1.44314 28.5429 3.18404 27.3036 5.53337C25.8763 8.23835 25.644 9.35015 25.2507 15.3501C25.0055 19.0939 24.7256 20.6655 24.2513 20.9592C22.8562 21.8235 21.1647 21.9259 17.377 21.3746C15.2172 21.0603 12.316 20.6427 10.9302 20.447C5.78983 19.7208 1.3779 21.7479 0.243797 25.3572C-0.756149 28.5404 1.43691 32.6452 4.68431 33.6668L6.26099 34.1632L4.20808 36.039C1.30275 38.6935 1.32119 39.7385 4.36621 45.0992C7.02812 49.7855 8.66104 51.4473 10.2345 51.0705L11.3755 50.7975V68.3837V85.9698L11.4983 86.4674C11.8027 87.7007 12.8123 88.6342 14.0655 88.8414V88.8414L38.5239 88.9627C58.9949 89.0638 63.2422 88.9803 64.5736 88.4497C67.7574 87.1809 67.6532 87.9265 67.952 64.3638L68 42.4615H64.7729C61.5458 42.4615 63.3898 42.4615 59.2407 42.4615C55.5525 42.4615 60.8078 42.4615 56.4746 42.4615H54.6305H53.478C49.7898 42.4615 53.6076 42.4615 50.0203 42.4615C48.1763 42.3718 50.9424 42.4615 49.0983 42.4615C47.7153 42.4615 50.5399 42.4615 48.1763 42.4615C46.3102 42.4615 49.3288 42.4615 47.4847 42.4615H46.9172H35.1396C28.6618 42.4615 23.362 42.3735 23.362 42.2658C23.362 41.5185 44.9505 27.5082 53.6803 22.5902C56.9904 20.7253 58.4928 19.6188 58.68 18.9075C58.9787 17.7724 55.0546 10.6325 52.9602 8.5008C51.4204 6.93312 49.0452 6.89619 45.9518 8.3909C44.701 8.99537 43.6015 9.48995 43.5084 9.48995C43.4153 9.48995 43.3392 8.63576 43.3392 7.59211C43.3392 5.22915 41.6832 2.28941 39.6903 1.11475C37.6521 -0.0862955 34.5702 -0.354903 32.5823 0.495322ZM36.6853 7.78906C37.2902 8.81645 37.275 9.15759 36.5406 10.9904C35.6356 13.2509 34.1041 15.1773 32.1678 16.4922L30.9042 17.3504L31.4666 12.886C31.9673 8.91009 32.166 8.30913 33.2807 7.39472C34.7998 6.1484 35.7873 6.2627 36.6853 7.78906ZM50.8588 9.69349C51.6453 10.2188 56.5552 17.786 56.5552 18.4731C56.5552 18.5817 54.5322 19.7982 52.0603 21.1759C49.5883 22.5541 45.328 25.0644 42.5933 26.7547C39.8585 28.445 37.5534 29.7525 37.4705 29.6606C37.3875 29.5683 35.7393 27.4304 33.8077 24.9101L30.2957 20.3275L33.3983 18.3421C40.3186 13.9147 48.8253 9.05033 49.6491 9.05033C49.7847 9.05033 50.3291 9.3396 50.8588 9.69349ZM14.1416 26.5687L16.6772 26.8549L13.7922 28.0903C9.36871 29.9842 6.3721 29.3924 7.40339 26.8294C7.67954 26.1432 9.68542 26.0658 14.1416 26.5687ZM24.0862 31.7193C26.0631 34.3065 27.4549 36.5226 27.2276 36.7222C25.9704 37.8261 9.98232 49.0558 9.6679 49.0558C9.20689 49.0558 8.8118 48.4588 6.06967 43.6229C4.00984 39.9904 3.94023 39.7552 4.62715 38.7555C5.20157 37.9197 19.8375 27.0747 20.3912 27.0747C20.4709 27.0747 22.1338 29.1647 24.0862 31.7193ZM33.9653 65.7613V86.8631H24.6026C17.247 86.8631 15.048 86.7294 14.3449 86.2393C13.4874 85.6418 13.4455 84.858 13.3367 67.4455L13.2233 49.2756L16.5361 46.9676L19.8495 44.6596H26.9076H33.9653V65.7613ZM65.959 64.5524C65.7603 77.9577 65.4924 84.8035 65.1379 85.5442L64.6114 86.6433L55.2814 86.7624L45.9518 86.8811V65.7705V44.6596H56.1029H66.2536L65.959 64.5524Z" fill="url(#paint3_linear_186:1897)"/>
<defs>
<linearGradient id="paint0_linear_186:1897" x1="45.8045" y1="29.2061" x2="42.195" y2="44.7937" gradientUnits="userSpaceOnUse">
<stop stop-color="#8CF997"/>
<stop offset="1" stop-color="#66F9C3"/>
</linearGradient>
<linearGradient id="paint1_linear_186:1897" x1="63.7993" y1="16.1973" x2="63.7993" y2="34.5986" gradientUnits="userSpaceOnUse">
<stop stop-color="#8CF997"/>
<stop offset="1" stop-color="#66F9C3"/>
</linearGradient>
<linearGradient id="paint2_linear_186:1897" x1="51.7007" y1="0" x2="51.7007" y2="9.40137" gradientUnits="userSpaceOnUse">
<stop stop-color="#8CF997"/>
<stop offset="1" stop-color="#66F9C3"/>
</linearGradient>
<linearGradient id="paint3_linear_186:1897" x1="34" y1="0" x2="34" y2="89" gradientUnits="userSpaceOnUse">
<stop stop-color="#3477DA"/>
<stop offset="1" stop-color="#4956DC"/>
</linearGradient>
</defs>
</svg>
