<svg width="28" height="22" viewBox="0 0 28 22" fill="none" xmlns="http://www.w3.org/2000/svg">
<g clip-path="url(#clip0_186:1678)">
<path d="M27.4771 2.80875C26.4828 3.22876 25.4289 3.5058 24.3498 3.63087C25.4878 2.97972 26.3394 1.95524 26.7457 0.74839C25.6775 1.3582 24.5073 1.78739 23.2865 2.01709C22.5408 1.25192 21.5711 0.719354 20.5039 0.488872C19.4367 0.25839 18.3216 0.340696 17.3041 0.725049C16.2866 1.1094 15.4139 1.77796 14.7999 2.64349C14.1859 3.50902 13.8591 4.53133 13.8622 5.57705C13.8601 5.97721 13.9073 6.37622 14.0029 6.76582C11.8348 6.66314 9.71382 6.12453 7.77835 5.18515C5.84289 4.24577 4.1365 2.92675 2.77062 1.31423C2.07375 2.46222 1.861 3.82095 2.17569 5.11364C2.49038 6.40633 3.30884 7.53573 4.46435 8.27176C3.59595 8.25124 2.74601 8.02779 1.9888 7.62092V7.68563C1.98822 8.88935 2.42371 10.0561 3.22126 10.9877C4.01881 11.9193 5.12923 12.5582 6.36382 12.7959C5.89608 12.9172 5.41358 12.9786 4.92893 12.9786C4.58528 12.9793 4.24243 12.947 3.90552 12.8822C4.25355 13.9175 4.93149 14.8228 5.84449 15.4716C6.75748 16.1204 7.85985 16.4802 8.99734 16.5005C7.06737 17.9505 4.68255 18.7367 2.22772 18.7322C1.79339 18.7317 1.35947 18.7067 0.928223 18.6573C3.40876 20.2001 6.306 21.0184 9.26547 21.012C11.3069 21.0257 13.3309 20.6514 15.2197 19.9108C17.1084 19.1703 18.8243 18.0783 20.2677 16.6983C21.711 15.3183 22.8529 13.6778 23.6271 11.8723C24.4012 10.0668 24.7922 8.13217 24.7772 6.18095C24.7772 5.95512 24.7772 5.72929 24.7599 5.50854C25.8262 4.76997 26.7463 3.85576 27.4771 2.80875Z" fill="white"/>
</g>
<defs>
<clipPath id="clip0_186:1678">
<rect width="26.5475" height="20.648" fill="white" transform="translate(0.930176 0.362831)"/>
</clipPath>
</defs>
</svg>
