<svg width="27" height="22" viewBox="0 0 27 22" fill="none" xmlns="http://www.w3.org/2000/svg">
<g clip-path="url(#clip0_186:1685)">
<path d="M26.6346 4.92225C26.6825 3.81631 26.3053 2.73584 25.5857 1.91793C24.8662 1.10001 23.8631 0.611456 22.7966 0.559457C19.9238 0.419863 16.9941 0.362846 14.0018 0.362846H13.0688C10.0822 0.362846 7.14684 0.416914 4.27402 0.559457C3.20723 0.614977 2.20506 1.10627 1.4867 1.92588C0.768349 2.7455 0.39228 3.82672 0.440751 4.93306C0.311806 6.851 0.25397 8.76107 0.259659 10.6761C0.265347 12.591 0.311806 14.5041 0.43601 16.424C0.385443 17.532 0.76031 18.6156 1.47856 19.4377C2.1968 20.2598 3.19992 20.7533 4.26833 20.8103C7.28621 20.9558 10.3828 21.0197 13.5306 21.0148C16.6834 21.0253 19.7708 20.9571 22.7928 20.8103C23.8613 20.7543 24.8648 20.2618 25.5839 19.4405C26.303 18.6192 26.6791 17.536 26.6298 16.4279C26.7541 14.508 26.8109 12.594 26.8062 10.6751C26.8163 8.75746 26.7591 6.83985 26.6346 4.92225ZM10.9905 15.9501V5.38526L18.5101 10.6652L10.9905 15.9501Z" fill="white"/>
</g>
<defs>
<clipPath id="clip0_186:1685">
<rect width="26.5475" height="20.648" fill="white" transform="translate(0.259766 0.362846)"/>
</clipPath>
</defs>
</svg>
